<?xml version="1.0" encoding="UTF-8" standalone="no"?>
<svg
   id="_イヤー_1"
   viewBox="0 0 2360.91 2772.98"
   version="1.1"
   sodipodi:docname="Logo_standard.svg"
   inkscape:version="1.4.2 (f4327f4, 2025-05-13)"
   xmlns:inkscape="http://www.inkscape.org/namespaces/inkscape"
   xmlns:sodipodi="http://sodipodi.sourceforge.net/DTD/sodipodi-0.dtd"
   xmlns="http://www.w3.org/2000/svg"
   xmlns:svg="http://www.w3.org/2000/svg">
  <sodipodi:namedview
     id="namedview23"
     pagecolor="#ffffff"
     bordercolor="#000000"
     borderopacity="0.25"
     inkscape:showpageshadow="2"
     inkscape:pageopacity="0.0"
     inkscape:pagecheckerboard="0"
     inkscape:deskcolor="#d1d1d1"
     inkscape:zoom="0.14641289"
     inkscape:cx="1181.59"
     inkscape:cy="1386.49"
     inkscape:window-width="1152"
     inkscape:window-height="650"
     inkscape:window-x="-6"
     inkscape:window-y="-6"
     inkscape:window-maximized="1"
     inkscape:current-layer="_イヤー_1" />
  <defs
     id="defs1">
    <style
       id="style1">.cls-1{fill:#fff;}.cls-2{fill:#133d00;}.cls-3{fill:#231815;}</style>
  </defs>
  <g
     id="g14">
    <g
       id="g9">
      <path
         class="cls-2"
         d="M318.37,2459.78c-39.2,1.23-69.45-13.15-91.1-43.56-19.42-26.71-29.5-62.47-29.87-106.85-.75-43.97,8.59-79.32,27.63-106.44,20.54-29.59,50.4-44.8,89.23-45.62,39.95-1.23,70.94,9.86,92.97,33.7,2.24,2.06,3.36,4.52,3.36,6.99s-1.12,5.34-3.36,8.63l-19.79,27.53c-2.24,3.29-4.11,3.29-5.6-.41-8.21-17.67-16.05-29.59-23.52-36.58-11.95-10.68-26.88-16.44-45.18-16.44-27.26,.41-47.42,14.79-60.49,43.97-10.08,22.19-14.93,50.14-14.56,83.43,.37,32.46,6.35,59.59,17.92,81.37,14.19,27.13,34.72,41.1,61.98,41.51,20.54,0,38.08-3.29,51.9-9.86,15.31-6.99,28.75-19.32,40.7-36.99,2.24-2.88,4.85-3.7,7.47-2.06,3.36,1.65,4.11,4.52,2.61,7.81-17.17,44.8-51.15,68.22-102.3,69.87Z"
         id="path1" />
      <path
         class="cls-2"
         d="M663.77,2433.89c-18.67,20.55-42.94,30.83-73.55,30.83s-53.39-10.28-71.31-30.41c-17.55-20.14-26.51-46.85-26.51-80.14-.37-35.34,7.84-63.29,24.27-84.25,17.55-22.19,42.19-33.29,73.55-32.88,32.86,.41,57.87,10.69,75.42,31.23,17.17,20.55,26.14,48.91,26.14,85.07,0,33.7-9.33,60.41-28,80.55Zm-72.43-180.42c-22.4-.41-39.2,10.69-49.66,33.29-7.84,17.26-11.57,39.87-11.57,66.99,.75,63.29,20.54,94.94,59.74,94.53,41.07-.82,61.23-32.06,61.23-93.7,0-66.99-19.79-100.69-59.74-101.1Z"
         id="path2" />
      <path
         class="cls-2"
         d="M860.56,2464.72c-31.36,0-55.63-10.28-72.43-32.06-15.68-19.73-23.52-47.26-24.27-82.6-.75-34.11,6.72-61.65,22.78-81.79,16.05-20.55,39.58-31.23,70.57-32.06,31.36-.82,56.38,8.63,75.05,28.36,2.61,2.88,2.61,5.75,0,8.63l-14.93,23.01c-1.12,2.06-2.99,2.88-5.23,2.88-2.99,0-4.85-1.65-5.97-4.52-4.11-11.51-10.45-20.96-19.04-28.35-8.59-6.99-18.29-10.69-28.75-10.69-20.91,0-36.22,10.69-45.92,31.65-8.21,16.85-11.95,37.4-11.2,62.06,.75,23.84,5.6,43.15,14.56,58.36,10.83,18.49,26.14,27.95,45.92,28.36,31.36,.82,57.5-10.27,78.03-33.29,2.61-2.46,4.85-2.88,6.72-1.23,1.87,2.06,2.24,4.11,.75,6.99-18.67,36.99-47.79,55.48-86.62,56.31Z"
         id="path3" />
      <path
         class="cls-2"
         d="M1186.91,2433.89c-18.67,20.55-42.94,30.83-73.55,30.83s-53.39-10.28-71.31-30.41c-17.55-20.14-26.51-46.85-26.51-80.14-.37-35.34,7.84-63.29,24.27-84.25,17.55-22.19,42.19-33.29,73.55-32.88,32.86,.41,57.87,10.69,75.42,31.23,17.17,20.55,26.14,48.91,26.14,85.07,0,33.7-9.33,60.41-28,80.55Zm-72.43-180.42c-22.4-.41-39.2,10.69-49.66,33.29-7.84,17.26-11.57,39.87-11.57,66.99,.75,63.29,20.54,94.94,59.74,94.53,41.07-.82,61.23-32.06,61.23-93.7,0-66.99-19.79-100.69-59.74-101.1Z"
         id="path4" />
      <path
         class="cls-2"
         d="M1452.03,2458.55h-18.29c-7.1,0-10.45-3.7-10.45-11.51v-129.87c0-19.32-1.49-32.47-4.48-38.63-4.86-11.1-15.31-16.44-31.74-16.44-15.3,0-30.24,9.04-44.06,26.71-3.36,4.52-6.34,9.04-8.96,13.97v144.66c0,7.81-3.73,11.51-10.82,11.51h-17.92c-7.1,0-10.83-3.7-10.83-11.51v-203.02c0-2.47,1.12-3.29,3.36-3.29l30.62,.82c3.73,0,5.6,2.06,5.6,5.76v25.89c16.81-23.01,35.84-34.93,56.75-36.17,47.79-2.87,71.69,23.84,71.69,80.14v129.46c0,7.81-3.36,11.51-10.45,11.51Z"
         id="path5" />
      <path
         class="cls-2"
         d="M1649.2,2465.13c-3.73,0-7.09,.41-10.82,.41-29.87,0-53.02-9.45-70.19-28.35-16.81-18.91-25.77-44.8-26.51-77.67-1.49-37.81,5.97-67.4,21.29-88.36,16.8-22.61,41.82-33.7,75.42-33.7,29.49,0,52.27,9.45,68.7,27.95,16.05,18.9,23.9,44.38,23.52,76.85h-149.72v16.44c.75,21.78,6.34,39.86,17.17,54.25,11.57,14.8,27.25,22.61,46.67,23.01,31.74,.82,58.62-13.15,79.9-41.51,2.24-2.87,4.48-3.28,6.72-1.23,2.99,2.47,3.73,5.34,2.24,8.22-16.43,39.45-44.43,60.41-84.38,63.7Zm-11.57-205.9c-16.81-.41-29.87,6.17-39.95,19.32-9.33,11.92-14.19,27.13-14.93,45.62h107.91c.37-42.74-17.55-64.11-53.02-64.93Z"
         id="path6" />
      <path
         class="cls-2"
         d="M2017.74,2456.91c-18.67,.41-33.6-1.65-44.8-6.99-13.81-5.75-25.01-16.85-33.23-32.88-4.48-8.63-10.08-21.78-16.06-38.63-6.72-18.49-11.95-31.24-15.68-39.04-2.61-4.93-4.48-9.04-6.72-11.92-5.23,.41-9.33,.82-12.69,.82h-39.58v117.54c0,7.81-3.73,11.51-10.82,11.51h-17.92c-7.1,0-10.83-3.7-10.83-11.51v-278.23c0-4.11,1.87-6.17,5.6-6.17h72.8c29.87,0,52.27,5.34,66.46,15.21,17.55,13.15,26.88,34.93,27.26,66.17,.75,43.15-14.19,69.46-44.8,78.91,1.86,1.23,3.36,2.88,4.48,4.93,8.58,19.31,19.78,43.15,34.35,71.92,12.32,24.66,23.53,36.71,41.08,43.29,1.24,.39,17.13,3.27,27.98,.34,11.68-3.15,25.17-4.4,24.97-2.89-.39,1.92-11.84,8.51-24.81,12.56-12.04,3.76-25.6,5.07-27.04,5.07Zm-89.61-258.5c-7.84-10.28-20.91-15.62-38.83-15.62h-40.32v124.12h39.21c21.28,0,35.47-5.34,42.19-16.44,5.6-8.22,8.21-23.84,8.21-46.85,0-20.55-3.36-35.34-10.45-45.21Z"
         id="path7" />
      <path
         class="cls-2"
         d="M2222.38,2461.43h-17.92c-7.1,0-10.45-4.11-10.45-11.51v-14.79c-9.34,16.03-24.27,24.25-43.69,24.66-47.04,1.65-70.57-21.37-70.57-69.45v-145.9c0-2.47,1.12-3.7,2.99-3.7l30.99,1.23c3.36,0,5.23,2.06,5.23,5.76v147.13c0,12.74,2.61,23.42,7.84,31.65,6.35,9.45,14.93,14.38,26.14,13.97,22.4-.41,36.22-14.38,41.08-41.51v-154.94c0-2.46,1.12-3.29,3.36-3.29l30.62,1.23c3.36,0,4.86,2.06,4.86,5.76v202.2c0,7.4-3.36,11.51-10.45,11.51Z"
         id="path8" />
      <path
         class="cls-2"
         d="M2354.57,2449.92c-4.11,4.93-9.33,6.99-15.3,6.99s-10.83-2.47-15.31-6.99c-4.1-4.52-6.35-10.27-6.35-16.85s2.25-12.33,6.35-16.85,9.34-6.99,15.31-6.99,11.19,2.46,15.3,6.99c4.48,4.52,6.34,10.28,6.34,16.85,0,6.99-1.86,12.33-6.34,16.85Z"
         id="path9" />
    </g>
    <polygon
       class="cls-2"
       points="159.57 2327.2 26.66 2457.8 0 2430.22 133.38 2299.29 159.57 2327.2"
       id="polygon9" />
    <g
       id="g13">
      <path
         class="cls-3"
         d="M928.52,2750.13h-16.39c-6.36,0-9.37-3.3-9.37-10.26v-200.88c0-.37-.33-.73-.67-1.1-.67,0-1.34,.37-1.34,.73l-74.59,169.72c-2.68,6.23-7.36,9.16-13.38,9.16h-10.04c-6.36,0-11.04-2.93-13.71-9.16l-73.93-161.66c-1,0-1.67,0-2.34,.73,.67,108.14,.67,172.29-.33,192.81,0,4.03-1.34,7.7-4.01,11-2.34,3.3-5.02,5.13-8.7,5.13-7.69,0-11.71-5.13-11.37-14.66,0-2.57,1-6.6,3.01-11.36l4.35-11.36c1.67-4.77,2.34-8.8,2.34-11.73l.33-215.18c0-3.67,1.67-5.5,4.68-5.5h13.05c6.36,0,10.7,3.3,13.71,9.53l86.64,186.58c.33,.73,1,1.1,2.01,1.1s1.67-.37,2.01-1.1l82.62-187.32c2.68-6.23,7.36-9.53,13.71-9.53h16.06c3.35,0,5.02,1.83,5.02,5.5v248.53c0,6.97-3.01,10.26-9.37,10.26Z"
         id="path10" />
      <path
         class="cls-3"
         d="M1180.61,2741.89c-18.43,20.19-42.38,30.29-72.6,30.29s-52.7-10.1-70.38-29.88c-17.32-19.79-26.16-46.04-26.16-78.75-.37-34.73,7.74-62.19,23.95-82.78,17.32-21.81,41.64-32.71,72.6-32.31,32.43,.4,57.12,10.5,74.44,30.69,16.95,20.19,25.79,48.06,25.79,83.59,0,33.11-9.21,59.36-27.64,79.15Zm-71.49-177.28c-22.11-.4-38.69,10.5-49.01,32.71-7.74,16.96-11.42,39.17-11.42,65.82,.74,62.19,20.27,93.28,58.96,92.88,40.54-.81,60.43-31.5,60.43-92.07,0-65.82-19.53-98.94-58.96-99.34Z"
         id="path11" />
      <path
         class="cls-3"
         d="M1442.98,2597.32l-62.28,163.95c-1.11,3.63-3.69,5.25-7,5.25h-17.69c-3.69,0-6.26-1.62-7.37-5.25l-71.86-203.93c-1.11-3.63,0-5.25,3.32-5.25l30.22-.4c3.32,0,5.53,1.62,6.63,4.85l58.59,168.4c.37,1.21,1.11,1.62,1.84,1.62,1.11,0,1.84-.4,2.21-1.62,8.11-19.38,21.37-54.92,40.17-105.4l22.85-63c2.58-7.27,7.74-10.9,14.74-10.9,8.11,0,11.79,4.44,11.79,13.33,0,6.06-2.58,11.71-8.47,16.96-9.95,8.88-15.85,16.15-17.69,21.4Z"
         id="path12" />
      <path
         class="cls-3"
         d="M1635.33,2772.58c-3.69,0-7,.4-10.69,.4-29.48,0-52.33-9.29-69.28-27.86-16.58-18.58-25.43-44.02-26.16-76.32-1.47-37.15,5.9-66.23,21-86.82,16.58-22.21,41.27-33.11,74.44-33.11,29.11,0,51.59,9.29,67.8,27.46,15.85,18.58,23.58,43.61,23.22,75.52h-147.77v16.15c.74,21.4,6.26,39.17,16.95,53.31,11.42,14.54,26.9,22.21,46.06,22.61,31.32,.81,57.86-12.92,78.86-40.79,2.21-2.83,4.42-3.23,6.63-1.21,2.95,2.42,3.69,5.25,2.21,8.08-16.21,38.77-43.85,59.36-83.28,62.59Zm-11.42-202.32c-16.58-.4-29.48,6.06-39.43,18.98-9.21,11.71-14,26.65-14.74,44.82h106.5c.37-42-17.32-63-52.33-63.8Z"
         id="path13" />
    </g>
  </g>
  <g
     id="g23">
    <path
       d="M1898.43,1410.65c18.24,2.64,34.6,3.62,50.22,7.55,29.52,7.43,53.87,22.68,66.36,52.16,2.33,5.51,4.16,11.66,4.33,17.57,.53,19.47,.2,38.97,.2,58.46,0,1.56,0,3.12,0,3.26,9.26,0,17.99-.73,26.52,.27,5.33,.62,11.49,2.62,15.28,6.14,7.97,7.42,15.26,15.8,21.68,24.62,10.72,14.73,11.97,31.29,7.87,48.82-7.37,31.51-22.04,58.75-43.13,83.46-18.52,21.71-38.43,41.79-59.8,60.49-8.84,7.73-18.48,14.61-28.17,21.28-23.22,16.01-42.82,35.95-63.05,55.4-18.96,18.22-34.39,38.87-49.59,59.99-6.37,8.85-14.36,16.53-21.5,24.84-4.21,4.9-8.46,9.81-12.23,15.05-24.31,33.76-53.99,58.93-96.97,65.67-36.87,5.78-72.76,2.73-108.32-7.5-4.27-1.23-8.78-2.52-12.38-4.95-11.32-7.66-23.99-9.17-37.09-9.68-7.23-.28-14.32-.49-17.8-9.36-1.02-2.6-6.76-4.82-10.26-4.72-18.57,.55-34.48-7.72-51.31-13.55-16.35-5.67-29.28-14.42-38.95-28.84-3.75-5.6-9.53-9.99-14.87-14.34-19.53-15.91-39.26-31.57-58.91-47.33-2.54-2.03-5.36-3.81-7.53-6.18-29.36-32.05-68.08-50.91-103.87-73.9-4.37-2.8-8.72-4.92-11.46-10.23-1.58-3.07-7.42-5.73-11.23-5.58-32.32,1.26-61.89-12.41-93.15-16.5-18.48-2.42-37.03-4.51-55.61-5.83-7.57-.54-15.29,1.74-22.97,2.08-16.18,.72-32.39,.81-48.57,1.51-18.63,.8-34.97,8.34-48.43,20.51-21.63,19.56-47.06,33.32-71.35,48.75-19,12.07-40.67,18.48-63.03,20.92-7.27,.79-15.15-1.93-22.46-4.03-8.54-2.46-16.79-5.98-25.14-9.09-3.03-1.13-6.36-1.9-8.96-3.7-12.84-8.89-25.35-18.25-38.27-27.03-4.54-3.09-9.68-6.06-14.94-7.13-7.25-1.47-12.82-4.58-17.13-10.37-.73-.98-1.64-1.84-2.27-2.87-7.29-11.82-17.21-17.61-31.57-15.13-7.83,1.35-15.26-1.29-22.18-5.05-22.09-12.01-44.45-23.58-66.15-36.27-9.36-5.47-17.64-12.96-25.93-20.09-8.74-7.52-17.92-13.67-29.29-16.74-4.23-1.14-8.5-4.56-11.32-8.08-9.28-11.6-14.05-25.42-18.28-39.52-8.27-27.59-16.86-55.09-25.57-82.54-7.62-24.02-20.63-44.96-37.53-63.53-8.48-9.32-17.27-18.37-25.67-27.76-20.35-22.76-27.73-49.01-21.2-79.09,4.73-21.79,11.61-42.16,29.58-57.26,18.96-15.94,28.85-17.45,50.88-5.59,29.44-13.11,52.68,.41,73.17,19.98,8.89,8.49,14.67,20.28,21.58,30.75,2.43,3.68,4.04,7.91,6.44,12.72,2.32-2.52,4.29-4.36,5.9-6.46,16.35-21.35,34.82-40.71,54.53-58.96,22.98-21.29,45.89-42.76,62.04-70.01,11.11-18.75,23.02-37.18,30.88-59.3-9.45-1.68-17.75-.48-25.99,.09-4.45,.31-8.89,1.54-13.31,1.45-16.47-.34-30.43,6.55-44.96,13.28-28.31,13.1-57.15,25.28-88.99,27.31-28.31,1.8-52.34-7.92-73.01-26.81-14.08-12.86-27.85-26.08-42.23-38.59-7.69-6.69-12.41-14.98-15.92-24.12-2.59-6.73-6.52-10.87-13.41-14.1-12.35-5.79-23.87-13.39-35.52-20.59-2.16-1.33-4.02-4.11-4.77-6.6-5.34-17.8-13.45-34.82-13.78-54.04-.09-5.1-4.16-10.11-6.31-15.21-7.77-18.48-6.33-37.31-2.02-56.23,.45-1.98,1.19-3.9,1.51-5.9,6.03-37.48,31.18-56.95,64.6-68.6,14.12-4.92,28.92-8.42,42.25-14.94,11.09-5.42,21.27-13.46,30.41-21.91,9.76-9.02,11.95-21.78,11.46-34.8-.61-16.23-1.5-32.46-1.93-48.69-.32-12.19,3.73-22.66,11.48-32.45,19.9-25.17,38.95-51,58.51-76.43,2.67-3.47,6.03-6.58,9.56-9.18,18.31-13.44,36.74-26.72,55.24-39.91,4.61-3.29,9.37-6.56,14.51-8.87,15.53-6.97,31.15-13.79,47-20.02,8.78-3.45,17.85-5.84,18.99-17.34,19.76-26.75,25.34-59.44,36.52-89.64,9.89-26.71,21.01-52.63,33.23-78.29,11.14-23.4,20.65-47.59,30.48-71.59,21.54-52.6,43.84-104.92,63.8-158.12,10.43-27.82,23.47-53.51,42.54-76.06,9.95-11.77,21.56-22.18,31.16-34.21,16.6-20.79,36.16-38.61,55.87-56.07,17.46-15.47,39.02-23.48,62.83-21.25,8.21,.77,16.23,4.73,24.03,7.95,2.73,1.13,5.66,4.06,6.59,6.81,2.57,7.65,5.17,15.56,5.72,23.51,.33,4.69-2.43,10.15-5.18,14.37-5.04,7.73-11.9,14.33-16.61,22.24-15.8,26.51-30.47,53.69-46.6,79.99-9.28,15.14-15.32,31.2-20,48.12-4.21,15.23-9.37,30.19-14,45.3-3.92,12.8-7.67,25.65-11.53,38.47-6.89,22.93-14.56,45.66-20.53,68.82-9.62,37.3-18.14,74.88-27.06,112.35-.14,.59,.43,1.34,.7,2.11,18.34-25.32,36.64-50.6,54.95-75.88,.24-.33,.42-.7,.67-1.02,41.72-52.47,69.59-113.49,105.21-169.68,21.69-34.21,46.61-66.63,72.47-97.87,21.44-25.91,45.85-49.45,69.93-73.04,17.27-16.92,38.7-28.29,60.77-37.77,9.14-3.93,19.4-5.91,29.35-7.09,10.44-1.25,21.14-1.07,31.67-.46,18.12,1.05,33.78,8.95,47.08,20.72,9.38,8.29,17.95,17.69,25.83,27.45,22.61,28,25.71,60.34,12.51,92.02-13.72,32.93-31.81,64.37-62.39,85.51-33.36,23.07-55.05,55.26-70.33,91.57-16.35,38.86-34.09,77.25-45.9,117.94-5.53,19.06-12.01,37.85-17.97,56.79-12.6,40.03-21.73,80.77-24.43,122.78-.08,1.22,.04,2.54-.4,3.63-6.64,16.51,1.07,27.47,13.34,37.62,19.49,16.13,39.46,31.26,63.46,40.2,7.98,2.97,15.74,6.6,23.84,9.13,4.54,1.42,9.59,1.21,14.6,.85,4.45,1.69,7.6,7.01,14.06,3.88,1.49-.72,4.45,1.33,6.64,2.34,16.54,7.61,32.79,15.93,49.65,22.74,15.67,6.33,30.29,14.38,44.95,22.58,6.79,3.8,13.05,9.09,22.21,8.27,3.41-.3,7.12,4.85,10.96,7.05,11.26,6.46,22.66,12.69,34.79,19.44,1.2-1.1,2.78-2.56,5.2-4.8,7.95,5.72,16.31,11.31,24.2,17.51,14.66,11.53,27.62,26.3,43.94,34.31,14.98,7.34,23.88,20.22,36.66,29.23,15.87,11.19,29.41,25.14,38.39,43.36,5.08,10.29,12.76,19.94,21.21,27.79,13.88,12.89,24.24,28.47,35.05,43.48,18.46,25.65,35.41,52.47,51.69,79.58,9.58,15.95,16.5,33.49,24.97,50.13,1.89,3.7,5.85,6.33,7.88,9.99,5.07,9.15,11.98,18.18,13.77,28.05,3.1,17.12,10.62,32.25,17,47.91,3.44,8.45,9.48,15.81,13.26,24.15,3.84,8.45,7.24,17.31,9.26,26.34,5.73,25.65,10.76,51.45,15.83,77.24,1.33,6.76,1.28,13.82,2.84,20.52,4.41,18.87,9.34,37.62,13.89,55.75Zm-1067.25,287.92c-10.74,9.46-21.9,18.09-31.61,28.13-12.88,13.31-20.67,29.57-25.34,47.71-2.2,8.55-.25,14.55,5.81,19.14,15.97,12.08,33.38,19.7,54.26,15.65,16.83-3.26,31.42-10.93,44.34-21.74,19.65-16.43,39.03-33.17,58.32-50.02,30.41-26.57,57.53-56.11,81.62-88.63,20.05-27.06,38.92-55.23,63.31-78.77,18.1-17.47,36.86-34.25,55.46-51.19,44.22-40.27,90.52-77.98,138.98-113.05,18.19-13.16,34.96-28.2,48.23-46.29,13.45-18.34,24.39-38.37,33.05-59.53,1.36-3.32,2.9-7.07,5.52-9.22,2.01-1.66,6.21-2.14,8.73-1.21,1.93,.71,3.42,4.32,3.85,6.85,.37,2.18-1,4.67-1.65,7.01-3.77,13.69-7.23,27.47-11.41,41.03-5.79,18.77-13.59,36.34-28.59,50.14-12.85,11.82-24.83,24.59-36.96,37.17-7.31,7.58-13.42,16.49-21.39,23.25-30.37,25.77-61.3,50.87-91.96,76.29-12.19,10.11-24.25,20.38-36.35,30.58-14.9,12.55-30.08,24.79-44.59,37.77-15.12,13.52-30.71,26.78-44.05,41.95-17.14,19.49-32.24,40.78-48.16,61.33-.38,.5-.17,1.45-.27,2.55,1.59,0,3.32,.45,4.68-.07,17.28-6.65,35.17-9.57,53.64-9.32,1.97,.03,4.39,.02,5.86-1.02,9.63-6.82,20.32-8.56,31.84-7.93,8.46,.46,16.96,.09,25.56,.09-.12-1.38-.3-3.54-.53-6.26,8.51,1.93,16.25,3.71,24,5.45,11.86,2.66,23.81,5.02,35.56,8.11,3.41,.9,8.58,.54,9.4,6.68-1.69,1.19-3.46,2.44-6.7,4.73,6.1,1.75,11.12,2.97,15.98,4.66,4.49,1.56,11.18,2.51,12.67,5.7,2.78,5.96,7.54,6.82,12.23,8.63,7.56,2.92,15.38,5.19,22.81,8.38,17.51,7.49,35.65,13.83,50.96,25.66,42.43,32.78,87.49,61.99,128.96,96.13,21.67,17.83,43.98,34.73,63.01,55.55,6.3,6.9,13.88,12.62,20.88,18.88,.68-.56,1.36-1.13,2.04-1.69-5.7-12.89-11.66-25.67-17.01-38.7-3.05-7.42-6.98-15.18-7.23-22.9-.5-15.34,.65-30.81,2.23-46.11,4.31-41.65,28.8-74.39,49.11-108.93,1.41-2.39,3.9-4.12,5.78-6.26,10.73-12.2,22.92-23.43,31.85-36.82,24.65-36.98,45.15-76.11,54.69-120.12,2.06-9.52,4.76-18.9,7.28-28.31,6.01-22.38,11.84-44.99,23.92-64.97,22.67-37.5,54.3-63.13,98.63-70.67,9.04-1.54,18.63-1.65,25.77,4.15,10.88,8.85,22.55,17.35,27.36,31.87,1.52,4.58,4.88,10.56,8.77,11.89,6.59,2.26,10.76-4.54,14.38-9.16,2.33-2.97,3.98-7.45,3.88-11.2-.31-11.33-.81-22.77-2.71-33.91-3.35-19.57-7.73-38.97-11.87-58.4-.74-3.46-2.37-6.74-3.61-10.09-6.63-17.84-13.29-35.66-19.85-53.52-.54-1.46-1.1-3.56-.46-4.69,2.98-5.26,.06-9.54-2.11-13.73-12.22-23.56-20.2-48.96-35.66-71.27-13.53-19.53-22.57-42.18-33.55-63.48-1.11-2.15-2.93-4.64-2.61-6.7,1.31-8.61-3.51-14.74-7.86-20.94-7.33-10.42-15-20.62-22.72-30.76-8.36-11-17-21.78-25.37-32.78-1.68-2.21-4.44-5.92-3.69-7.24,3.16-5.6-1.07-8.34-3.47-11.75-4.44-6.32-9-12.56-13.72-18.66-1.65-2.13-3.61-4.48-5.96-5.53-9.06-4.06-16.69-9.94-21.32-18.58-5.29-9.88-13.5-17.47-19.79-26.58-7.18-10.41-18.76-17.79-28.45-26.46-.58-.52-1.49-1.18-2.12-1.06-7.03,1.3-9.73-4.57-13.77-8.18-4.24-3.79-8.14-8.03-12.67-11.43-18.1-13.59-35.69-28.04-54.81-40.03-16.21-10.17-31.98-22.63-52.62-23.43-1.12-.04-2.29-.77-3.29-1.41-10.63-6.72-22.98-11.82-31.36-20.68-9.59-10.13-21.64-14.7-32.92-21.19-6.32-3.64-13.02-6.64-19.62-9.77-2.54-1.2-5.23-2.47-7.96-2.83-24.14-3.1-45.84-13.44-67.09-24.09-9.15-4.59-17.09,.38-25.34-1.73-3.55,6.88-9.44,3.76-14.86,3.92-4.65,.13-9.28,2.02-13.85,3.35-.91,.26-1.51,1.56-2.14,2.25,2.26,3.04,4.33,5.82,6.64,8.92-3.64,2.34-6.5,4.18-8.93,5.74,1.8,5.97,11.35,6.89,7.44,16.85-6.36-3.85-12.49-6.79-17.71-10.88-12.92-10.1-27.2-17.3-42.46-23.15-8.86-3.39-17-4.83-25.75-.5-1.87,.93-4.24,.87-7.69,1.51,2.58-10.18-1.52-20.38,7.3-27.68,1.12-.93,1.52-2.85,2-4.39,5.78-18.59,12.89-36.9,16.96-55.86,6.62-30.91,17.04-60.74,23.95-91.62,5.97-26.69,18.27-51.98,27.99-77.81,15.43-40.99,30.43-82.16,46.79-122.78,10.15-25.17,20.46-50.67,34.33-73.86,20.06-33.56,44.55-64.13,78.02-85.97,10.48-6.84,18.7-15.85,24.59-26.61,5.04-9.2,8.98-19.07,12.74-28.9,12.34-32.27,5.81-60.17-18.8-84.65-24.84-24.71-55.88-32.62-88.32-19.18-21.79,9.03-42.37,20.82-59.56,37.38-14.34,13.82-28.52,27.87-41.95,42.57-54.88,60.07-99.47,127.25-137.47,199.05-9.47,17.89-20.45,35.14-32.27,51.58-21.81,30.36-45.26,59.55-67.09,89.9-29.98,41.69-48.15,87.38-43.23,140.02,.3,3.24,1.11,6.52,.77,9.69-.25,2.41-1.94,4.67-2.57,6.05-6.8-1.42-12.16-2.52-17.51-3.67-9.43-2.01-19.4-1.2-28.21-6.55-5.16-3.14-7.8-6.77-6.78-12.79,2.58-15.2,4.46-30.55,7.85-45.56,6.6-29.25,14.02-58.33,21.14-87.46,4.72-19.3,9.19-38.67,14.37-57.84,3.7-13.68,9.38-26.86,12.48-40.65,13.77-61.16,32.44-120.74,56.49-178.61,3.55-8.54,8.56-16.49,13.19-24.54,4.04-7.02,8.75-13.67,12.73-20.72,5.34-9.45,10.29-19.12,15.36-28.72,3.01-5.69,6.96-11.14,8.66-17.2,2.26-8.1,5.84-14.91,11.97-20.55,3.59-3.3,7.51-6.42,10.38-10.28,10.7-14.44,11.41-25.86,4.77-37.24-3.94-6.75-7-7.4-13.78-3.48-5.62,3.26-11.17,6.64-16.76,9.96-47.58,28.3-87.92,63.96-115.84,112.58-6.69,11.64-13.27,23.1-17.62,35.96-7.41,21.9-15.48,43.61-24,65.11-19.15,48.33-41.4,95.26-64.17,142-12.2,25.05-24.91,50.28-29.11,78.53-.69,4.64-3.36,9.06-5.47,13.4-1.88,3.85-4.99,7.22-6.28,11.22-3.62,11.19-6.6,22.59-9.77,33.92-.65,2.33-2.13,5.18-1.37,7.02,2.72,6.56-.58,11.69-2.93,17.15-4.62,10.73-9.39,21.4-13.73,32.24-1.09,2.71-.77,5.99-1.27,10.55,5.73-1.06,9.96-2.01,14.25-2.6,9.22-1.26,18.44-2.76,27.71-3.2,2.37-.11,6.19,2.92,7,5.3,.76,2.25-.72,6.97-2.67,8.11-5.8,3.41-12.11,6.98-18.61,8.01-17.84,2.8-34.5,8.15-50.38,16.86-12.41,6.81-25.35,12.82-38.47,18.15-27.09,11.02-52.98,24.4-78.76,38.08-5.26,2.79-11.82,3.48-16.5,6.9-18.11,13.22-34.21,28.52-46.88,47.34-9.05,13.43-18.98,26.28-28.85,39.13-8.76,11.41-12.21,23.46-7.24,37.53,2.97,8.39,5.74,16.96,7.45,25.67,1.7,8.68,2.55,17.64,2.68,26.49,.11,7.76-3.55,13.53-11.31,17.09-7.69,3.53-14.52,8.87-21.99,12.94-12.42,6.76-24.87,13.53-37.66,19.55-9.14,4.3-19.2,6.68-28.23,11.17-13.03,6.47-25.69,13.76-38.1,21.36-5.3,3.25-9.44,8.25-11.17,14.61,1.11,.55,1.53,.94,1.83,.87,4.33-.98,8.67-1.94,12.97-3.06,33.84-8.81,67.38-8.98,100.59,3.12,26.93,9.82,38.03,29.3,32.47,57.32-6.83,34.37-34.73,57.32-70.12,57.65-6.76,.06-13.52,0-20.66,0-2.52,20.19-2.35,39.19-.79,58.19,.26,3.14,1.17,6.66,2.95,9.18,11.37,16.11,23.94,31.3,43.98,36.68,18.04,4.85,36.39,8.52,55.23,3.64,5.08-1.32,10.35-1.93,15.51-2.97,30.39-6.15,57.07-20.74,82.74-37.22,10.03-6.43,11.29-14.7,6.11-25.55-1.52-3.19-3.52-6.16-5.25-9.16,8.5-6.52,12.97-6.55,19.18-.45,8.11,7.96,10.29,24.01,3.58,33.8-9.49,13.85-20.91,26.21-36.36,33.36-13.19,6.1-26.98,11.06-40.8,15.61-17.27,5.69-34.77,10.75-52.34,15.41-4.91,1.3-10.5,.65-15.69,.1-5.78-.61-11.46-2.12-17.18-3.23,10.31,7.69,20.87,14.52,32,20.22,4.86,2.49,10.86,3.6,16.39,3.75,20.77,.59,40-5.66,58.23-15.05,31.76-16.36,63.99-31.21,100.08-35.38,13.24-1.53,26.47-5.73,39.58-5.27,23.95,.83,47.84,5.06,69.62,15.51,20.42,9.8,42.03,12.51,63.82,13.31,44.4,1.63,88.4-2.24,131.54-13.74,20.61-5.49,35.53-18.29,47.32-35.47,2.97-4.33,5.82-8.95,9.62-12.46,6.09-5.62,12.02-3.9,15.22,3.86,3.31,8.01,.67,15.36-3.86,21.83-4.84,6.92-9.95,13.86-15.97,19.72-14.91,14.49-28.34,30.03-40.06,47.29-17.33,25.52-35.75,50.3-53.54,75.51-43.35,61.43-85.84,123.51-134.24,181.19-17.47,20.82-34.99,41.46-50.42,64.02-21.56,31.51-45.05,61.7-68.16,92.13-16.66,21.94-21.58,46.84-20.32,73.54,.49,10.35,5.32,15.82,16.98,19.48,.68-1.28,1.56-2.58,2.13-4.02,5.39-13.56,10.62-27.19,16.16-40.69,1.68-4.1,3.62-8.32,6.39-11.7,7.85-9.59,16.88-8.48,22.66,2.75-.85,1.09-1.69,2.47-2.81,3.56-13.93,13.69-18.62,31-19.22,49.77-.48,15.04,8.89,24.38,23.92,24.59,10.41,.14,18.05-4.8,23.07-13.36,4.92-8.38,8.9-17.32,13.33-25.99,7.31-14.33,17.12-26.25,31.25-33.89,6.34,4.78,11.81,8.9,16.4,12.36Zm698.69,143.37h.4c0,8.94-.32,17.9,.07,26.83,.66,15.09,2,30.65,9.58,43.68,15.99,27.49,38.34,49.29,65.93,65.35,4.83,2.81,10.38,4.75,15.85,6.07,29.41,7.11,59.04,10.61,89.23,4.95,22.03-4.12,42.48-11.46,57.77-28.68,24.27-27.35,48.98-54.38,71.94-82.81,34.73-43.01,73.63-81.28,119.87-111.71,34.78-22.89,63.41-51.72,86.91-85.98,12.28-17.9,18.92-37.14,20.46-58.98,1.41-19.91-6.36-33.57-22.11-44.18-5.07-3.42-10.06-3.55-14.74-.3-3.58,2.48-7.07,5.6-9.44,9.2-7.81,11.86-14.92,24.19-22.65,36.11-4.4,6.78-9.14,13.41-14.39,19.54-3,3.51-7.65,4.86-12.23,2.48-5.03-2.62-6.7-7.21-5.07-12.39,2.55-8.11,5.42-16.14,8.63-24.01,7.63-18.77,16.62-37.07,23.1-56.22,14.26-42.12-4.78-77.84-38.9-100.77-11.51-7.73-25.12-8.89-38.67-8.59-23.21,.51-45.73,4.44-62.8,21.62-9.04,9.09-16.54,20.02-23.28,31.01-8.69,14.17-15.92,29.24-23.76,43.92-1.34,2.51-2.38,5.2-3.93,7.56-4.16,6.33-11.91,8.57-18.07,5.44-6.24-3.18-9.15-10.7-5.82-17.64,6.68-13.91,13.76-27.62,20.95-41.27,6.49-12.31,7.87-25.72,7.25-39.04-.78-16.49-12.13-26.73-24.61-35.88-7.34-5.39-14.54-6.25-22.7-2.13-16.53,8.34-30.89,19.24-43.06,33.33-13.59,15.74-18.98,34.77-22.94,54.36-5.42,26.81-13.21,52.82-25.6,77.21-17.29,34.02-34.95,67.85-52.81,101.58-3.58,6.76-8.45,12.92-13.23,18.96-21.19,26.77-42.64,53.33-63.84,80.08-9.66,12.19-14.91,25.85-13.39,41.8,.61,6.45,.1,13,.1,19.5Zm-717.6-410.18c18.77-26.29,36.76-51.29,54.54-76.45,11.49-16.25,22.08-33.17,34.23-48.91,5.87-7.61,7.08-14.82,5.67-23.67-1.5-9.41-6.05-16.77-13.34-22.47-9.28-7.25-18.9-14.06-28.21-21.27-26.79-20.78-57-33.85-90.14-40.47-7.22-1.44-14.34-3.4-19.41,4.71-1.15,1.84-3.89,2.86-6.08,3.86-11.23,5.12-18.08,14.25-24.11,24.63-7.54,12.97-15.4,25.84-24.19,37.98-11.43,15.78-23.83,30.87-36,46.11-3.26,4.08-6.92,7.93-10.86,11.35-19.95,17.32-40.44,34.04-56.79,55.06-13.7,17.62-27.42,35.23-41.14,52.84-4.24,5.45-9.1,10.53-12.62,16.41-5.29,8.84-11.28,17.78-8.26,30.71,6.9-4.29,13.05-8.01,19.08-11.92,2.38-1.54,4.3-3.81,6.74-5.21,3.45-1.97,7.16-2.25,9.58,1.64,2.08,3.34,.81,6.08-2.36,8.26-5.01,3.45-9.89,7.09-14.83,10.64-8.24,5.91-16.63,11.63-24.68,17.8-4.89,3.75-9.16,8.35-8.86,15.18,.46,10.53,.75,21.11,2.03,31.56,.71,5.73,3.31,11.23,4.87,16.25,9.53,.6,13.35-4.59,17.5-9.77,8.37-10.44,16.79-20.86,25.82-30.72,3.73-4.08,8.72-7.45,13.79-9.64,2.44-1.06,7.69,.37,9.28,2.48,1.62,2.14,.93,6.68,.04,9.82-.57,1.99-3.56,3.17-5.12,5-9.44,11.13-18.82,22.31-28.11,33.57-.97,1.18-1.51,2.89-1.78,4.43-3.07,17.49,6.18,34.16,23.25,39.18,23.02,6.76,44.41,3.45,61.53-14.81,12.27-13.08,24.67-25.77,40.27-35.08,9.38-5.59,18.28-12.06,26.97-18.7,9-6.88,17.3-14.23,18.58-26.96,.72-7.18,5.82-12.28,10.99-17.72,13.68-14.4,25.52-30.53,38.9-45.23,8.06-8.86,17.63-16.35,26.54-24.43,.23-.21,.64-.2,.97-.3,1.55,1.15,3.1,2.31,5.73,4.26Zm-358.4-93.73c-7.79-.66-12.48,3.07-17.05,7.15-17.52,15.63-23.58,36.58-26.3,58.67-2.29,18.61,2.68,35.35,16.02,49.25,8.44,8.79,16.4,18.03,24.66,26.99,22.1,23.96,38.25,51.27,47.55,82.64,8.29,27.98,17.24,55.76,25.61,83.72,3.85,12.86,10.21,24,21.09,31.93,17.4,12.66,35.42,24.25,55.74,32.03,12.56,4.81,24.74,6.44,37.96,2.94,13-3.44,16.18-6.98,14.29-20.55-1.17-8.44-2.93-16.8-4.14-25.23-.65-4.53-2.29-7.68-7.31-8.17-6.06-.59-9.06-4.97-11.47-9.81-1.94-3.89-3.57-7.95-5.5-12.31-16.72,4.05-32.76,3.11-48.29-2.74-18.64-7.03-30.57-19.57-31.44-40.56-.08-1.92-.49-3.83-.8-6.13-13.21,1.51-22.05-4.04-26.5-15.46-6.1-15.68-9.55-32.13-6.79-48.9,2.36-14.29,6.95-28.2,9.7-42.45,3.45-17.88,9.96-34.05,21.37-48.47,6.73-8.51,11.97-18.21,17.85-27.32-13.95-23.12-29.93-42.46-55.7-51.54-21.06-7.42-39.98,3.41-42.89,25.66-1.2,9.21-.84,18.63-1.01,27.95-.08,4.46,.66,8.95,.36,13.39-.54,7.99-6.02,13.48-12.95,13.6-6.35,.11-12.24-4.75-13.13-12.07-3.65-29.96-4.68-59.47,19.05-84.19Zm-46.24-261.13c-8.33-3.15-16.61-5.28-23.84-9.3-7.41-4.12-13.78-10.08-21.13-15.62,5.03,40.9,17.52,60.4,42.27,69.31,.92-15.17,1.81-29.87,2.69-44.39Zm18.55-33.38c16.53,6.58,37.82,2.46,48.63-9.13,10.02-10.74,15.17-23.22,11.17-41.22-18.96,19.87-43.22,29.24-59.8,50.35Zm-64.67-55.64c-9.87,11.2-11.22,26.01-4.35,34.53,8.24,10.21,15.95,13.28,25.09,8.63-11.88-11.38-16.97-26-20.74-43.16Z"
       id="path14" />
    <path
       class="cls-1"
       d="M831.18,1698.57c-4.59-3.46-10.06-7.58-16.4-12.36-14.13,7.64-23.94,19.57-31.25,33.89-4.43,8.67-8.41,17.6-13.33,25.99-5.02,8.56-12.66,13.5-23.07,13.36-15.03-.21-24.4-9.55-23.92-24.59,.6-18.77,5.29-36.08,19.22-49.77,1.11-1.1,1.96-2.47,2.81-3.56-5.79-11.23-14.81-12.34-22.66-2.75-2.77,3.38-4.71,7.6-6.39,11.7-5.54,13.5-10.77,27.13-16.16,40.69-.57,1.43-1.45,2.74-2.13,4.02-11.67-3.67-16.5-9.13-16.98-19.48-1.25-26.71,3.66-51.6,20.32-73.54,23.1-30.42,46.6-60.62,68.16-92.13,15.43-22.56,32.95-43.2,50.42-64.02,48.4-57.68,90.89-119.76,134.24-181.19,17.79-25.21,36.21-49.99,53.54-75.51,11.72-17.26,25.15-32.79,40.06-47.29,6.03-5.86,11.13-12.8,15.97-19.72,4.53-6.48,7.17-13.82,3.86-21.83-3.21-7.77-9.13-9.49-15.22-3.86-3.8,3.51-6.65,8.13-9.62,12.46-11.79,17.17-26.71,29.97-47.32,35.47-43.14,11.5-87.15,15.36-131.54,13.74-21.79-.8-43.4-3.51-63.82-13.31-21.78-10.45-45.67-14.68-69.62-15.51-13.11-.46-26.34,3.74-39.58,5.27-36.09,4.17-68.31,19.02-100.08,35.38-18.23,9.39-37.46,15.64-58.23,15.05-5.53-.16-11.54-1.26-16.39-3.75-11.13-5.71-21.69-12.54-32-20.22,5.72,1.12,11.4,2.63,17.18,3.23,5.19,.55,10.78,1.2,15.69-.1,17.58-4.66,35.07-9.72,52.34-15.41,13.82-4.55,27.61-9.51,40.8-15.61,15.45-7.14,26.87-19.51,36.36-33.36,6.7-9.78,4.52-25.84-3.58-33.8-6.21-6.1-10.68-6.08-19.18,.45,1.74,3,3.73,5.97,5.25,9.16,5.18,10.85,3.91,19.11-6.11,25.55-25.68,16.47-52.36,31.07-82.74,37.22-5.16,1.04-10.42,1.65-15.51,2.97-18.84,4.89-37.19,1.21-55.23-3.64-20.04-5.38-32.61-20.57-43.98-36.68-1.78-2.52-2.69-6.03-2.95-9.18-1.56-19-1.73-37.99,.79-58.19,7.14,0,13.9,.05,20.66,0,35.39-.33,63.29-23.28,70.12-57.65,5.57-28.02-5.54-47.5-32.47-57.32-33.21-12.11-66.75-11.94-100.59-3.12-4.3,1.12-8.64,2.08-12.97,3.06-.31,.07-.72-.33-1.83-.87,1.73-6.35,5.87-11.36,11.17-14.61,12.41-7.6,25.07-14.88,38.1-21.36,9.03-4.49,19.09-6.86,28.23-11.17,12.79-6.02,25.24-12.79,37.66-19.55,7.47-4.07,14.3-9.41,21.99-12.94,7.76-3.56,11.42-9.33,11.31-17.09-.13-8.85-.98-17.8-2.68-26.49-1.71-8.71-4.48-17.27-7.45-25.67-4.97-14.07-1.52-26.12,7.24-37.53,9.87-12.85,19.8-25.7,28.85-39.13,12.68-18.82,28.77-34.12,46.88-47.34,4.68-3.42,11.25-4.11,16.5-6.9,25.78-13.68,51.67-27.06,78.76-38.08,13.12-5.34,26.06-11.34,38.47-18.15,15.87-8.71,32.54-14.06,50.38-16.86,6.5-1.02,12.81-4.59,18.61-8.01,1.95-1.15,3.44-5.87,2.67-8.11-.81-2.38-4.63-5.41-7-5.3-9.27,.44-18.49,1.94-27.71,3.2-4.28,.59-8.52,1.54-14.25,2.6,.5-4.56,.19-7.83,1.27-10.55,4.34-10.84,9.11-21.51,13.73-32.24,2.35-5.46,5.65-10.59,2.93-17.15-.76-1.84,.72-4.69,1.37-7.02,3.17-11.33,6.15-22.73,9.77-33.92,1.29-4,4.4-7.37,6.28-11.22,2.12-4.34,4.78-8.76,5.47-13.4,4.2-28.25,16.91-53.48,29.11-78.53,22.77-46.74,45.02-93.66,64.17-142,8.52-21.5,16.59-43.21,24-65.11,4.35-12.86,10.94-24.31,17.62-35.96,27.92-48.62,68.26-84.28,115.84-112.58,5.59-3.32,11.14-6.71,16.76-9.96,6.77-3.92,9.84-3.27,13.78,3.48,6.64,11.38,5.93,22.8-4.77,37.24-2.87,3.87-6.79,6.99-10.38,10.28-6.13,5.64-9.7,12.45-11.97,20.55-1.69,6.07-5.65,11.51-8.66,17.2-5.08,9.6-10.02,19.27-15.36,28.72-3.98,7.05-8.69,13.7-12.73,20.72-4.63,8.05-9.64,16.01-13.19,24.54-24.05,57.87-42.72,117.45-56.49,178.61-3.1,13.79-8.78,26.97-12.48,40.65-5.18,19.17-9.66,38.54-14.37,57.84-7.12,29.14-14.54,58.21-21.14,87.46-3.39,15.01-5.28,30.37-7.85,45.56-1.02,6.02,1.62,9.66,6.78,12.79,8.81,5.35,18.79,4.53,28.21,6.55,5.35,1.14,10.71,2.24,17.51,3.67,.63-1.39,2.31-3.64,2.57-6.05,.33-3.17-.47-6.46-.77-9.69-4.92-52.64,13.25-98.32,43.23-140.02,21.82-30.35,45.28-59.54,67.09-89.9,11.81-16.45,22.8-33.69,32.27-51.58,38-71.81,82.59-138.99,137.47-199.05,13.43-14.7,27.6-28.75,41.95-42.57,17.19-16.56,37.77-28.35,59.56-37.38,32.44-13.44,63.47-5.53,88.32,19.18,24.61,24.48,31.14,52.38,18.8,84.65-3.76,9.83-7.7,19.7-12.74,28.9-5.89,10.76-14.11,19.77-24.59,26.61-33.47,21.84-57.96,52.41-78.02,85.97-13.86,23.19-24.18,48.69-34.33,73.86-16.37,40.62-31.37,81.78-46.79,122.78-9.72,25.83-22.02,51.12-27.99,77.81-6.91,30.88-17.33,60.71-23.95,91.62-4.06,18.96-11.17,37.27-16.96,55.86-.48,1.54-.88,3.46-2,4.39-8.82,7.3-4.72,17.5-7.3,27.68,3.45-.64,5.81-.58,7.69-1.51,8.75-4.33,16.9-2.89,25.75,.5,15.26,5.85,29.54,13.05,42.46,23.15,5.23,4.09,11.35,7.03,17.71,10.88,3.91-9.96-5.64-10.88-7.44-16.85,2.43-1.56,5.29-3.4,8.93-5.74-2.31-3.1-4.38-5.88-6.64-8.92,.63-.69,1.23-1.98,2.14-2.25,4.57-1.34,9.2-3.22,13.85-3.35,5.43-.16,11.31,2.96,14.86-3.92,8.25,2.12,16.19-2.85,25.34,1.73,21.25,10.65,42.95,20.99,67.09,24.09,2.73,.35,5.42,1.62,7.96,2.83,6.6,3.13,13.3,6.13,19.62,9.77,11.28,6.49,23.32,11.05,32.92,21.19,8.38,8.86,20.74,13.96,31.36,20.68,1,.64,2.18,1.37,3.29,1.41,20.64,.8,36.41,13.26,52.62,23.43,19.12,11.99,36.72,26.44,54.81,40.03,4.53,3.4,8.42,7.64,12.67,11.43,4.04,3.61,6.74,9.48,13.77,8.18,.63-.12,1.54,.54,2.12,1.06,9.7,8.67,21.27,16.05,28.45,26.46,6.28,9.11,14.49,16.7,19.79,26.58,4.63,8.64,12.25,14.52,21.32,18.58,2.35,1.05,4.31,3.4,5.96,5.53,4.72,6.11,9.28,12.35,13.72,18.66,2.4,3.41,6.64,6.15,3.47,11.75-.75,1.32,2.01,5.03,3.69,7.24,8.37,10.99,17.01,21.78,25.37,32.78,7.72,10.15,15.39,20.34,22.72,30.76,4.36,6.2,9.18,12.33,7.86,20.94-.31,2.06,1.5,4.55,2.61,6.7,10.97,21.3,20.01,43.95,33.55,63.48,15.46,22.31,23.44,47.71,35.66,71.27,2.17,4.19,5.09,8.46,2.11,13.73-.64,1.13-.08,3.23,.46,4.69,6.56,17.86,13.22,35.69,19.85,53.52,1.25,3.35,2.87,6.63,3.61,10.09,4.14,19.43,8.52,38.83,11.87,58.4,1.91,11.14,2.41,22.58,2.71,33.91,.1,3.75-1.54,8.22-3.88,11.2-3.62,4.62-7.79,11.41-14.38,9.16-3.89-1.33-7.26-7.31-8.77-11.89-4.81-14.53-16.48-23.03-27.36-31.87-7.14-5.8-16.73-5.69-25.77-4.15-44.33,7.54-75.96,33.18-98.63,70.67-12.08,19.98-17.91,42.59-23.92,64.97-2.53,9.41-5.22,18.79-7.28,28.31-9.54,44.01-30.04,83.14-54.69,120.12-8.93,13.4-21.12,24.63-31.85,36.82-1.88,2.13-4.37,3.87-5.78,6.26-20.31,34.54-44.8,67.29-49.11,108.93-1.58,15.3-2.73,30.77-2.23,46.11,.25,7.71,4.18,15.48,7.23,22.9,5.35,13.03,11.31,25.81,17.01,38.7-.68,.56-1.36,1.12-2.04,1.69-7-6.26-14.58-11.99-20.88-18.88-19.02-20.83-41.34-37.72-63.01-55.55-41.48-34.13-86.53-63.35-128.96-96.13-15.31-11.83-33.45-18.16-50.96-25.66-7.44-3.18-15.26-5.45-22.81-8.38-4.69-1.81-9.45-2.67-12.23-8.63-1.49-3.19-8.18-4.15-12.67-5.7-4.86-1.69-9.88-2.91-15.98-4.66,3.24-2.28,5.01-3.53,6.7-4.73-.81-6.15-5.98-5.78-9.4-6.68-11.75-3.09-23.69-5.45-35.56-8.11-7.75-1.74-15.5-3.52-24-5.45,.23,2.72,.42,4.88,.53,6.26-8.6,0-17.1,.37-25.56-.09-11.51-.62-22.21,1.11-31.84,7.93-1.47,1.04-3.89,1.05-5.86,1.02-18.47-.26-36.36,2.66-53.64,9.32-1.36,.52-3.09,.07-4.68,.07,.1-1.09-.11-2.05,.27-2.55,15.93-20.55,31.03-41.83,48.16-61.33,13.34-15.17,28.93-28.43,44.05-41.95,14.51-12.98,29.7-25.21,44.59-37.77,12.11-10.21,24.16-20.48,36.35-30.58,30.67-25.42,61.59-50.52,91.96-76.29,7.97-6.76,14.08-15.67,21.39-23.25,12.13-12.58,24.11-25.35,36.96-37.17,15-13.8,22.8-31.37,28.59-50.14,4.18-13.56,7.64-27.34,11.41-41.03,.64-2.34,2.02-4.83,1.65-7.01-.43-2.53-1.92-6.14-3.85-6.85-2.52-.93-6.72-.45-8.73,1.21-2.61,2.15-4.16,5.9-5.52,9.22-8.66,21.16-19.6,41.2-33.05,59.53-13.27,18.09-30.03,33.13-48.23,46.29-48.46,35.07-94.76,72.78-138.98,113.05-18.6,16.94-37.36,33.73-55.46,51.19-24.39,23.54-43.26,51.71-63.31,78.77-24.09,32.51-51.2,62.06-81.62,88.63-19.29,16.85-38.67,33.59-58.32,50.02-12.92,10.81-27.51,18.47-44.34,21.74-20.88,4.05-38.3-3.57-54.26-15.65-6.06-4.59-8.01-10.58-5.81-19.14,4.67-18.14,12.46-34.4,25.34-47.71,9.71-10.03,20.87-18.67,31.61-28.13ZM1405.44,137.62c-5.08-2.08-9.1-5.33-12.64-4.87-9.12,1.19-18.78,2.53-26.82,6.58-10.02,5.04-19.58,11.89-27.7,19.68-21.1,20.23-41.73,41-61.71,62.33-11.64,12.43-21.11,26.87-32.54,39.51-53.01,58.64-88.18,128.59-122.89,198.26-25.17,50.52-40.99,105.07-46.92,161.83-.17,1.65,.26,3.37,.66,7.8,3.72-5.78,6.01-9.01,7.97-12.42,14.36-24.98,28.69-49.99,42.98-75.02,13.48-23.61,26.89-47.26,40.37-70.87,9.86-17.27,18.18-35.69,29.96-51.52,36.3-48.77,64.46-102.37,94.68-154.76,20.04-34.75,43.65-66.59,74.7-92.36,10.54-8.75,18.86-20.23,32.13-25.72,2.61-1.08,4.25-4.51,7.76-8.44ZM788.1,850.22c-3.3,8.24-5.53,13.8-8.14,20.32,5.24,4.75,9.78,9.99,15.35,13.68,16.07,10.64,34.64,12.62,53.26,13.64,5.93,.32,12.01-.32,17.89-1.3,12.35-2.07,24.62-4.55,33.06-15.33,.85-1.09,2.95-1.18,4.45-1.8,11.63-4.78,13.46-8.37,11.5-20.85-12.79,3.05-25.51,7.53-38.55,8.84-16.86,1.69-34.05,1.94-50.96,.78-13.63-.93-26.97-5.05-37.85-17.98Z"
       id="path15"
       style="fill:none" />
    <path
       class="cls-1"
       d="M1529.88,1841.94c0-6.5,.51-13.06-.1-19.5-1.52-15.95,3.73-29.61,13.39-41.8,21.21-26.75,42.65-53.32,63.84-80.08,4.78-6.04,9.65-12.2,13.23-18.96,17.86-33.73,35.52-67.56,52.81-101.58,12.4-24.4,20.18-50.4,25.6-77.21,3.96-19.58,9.35-38.62,22.94-54.36,12.16-14.08,26.53-24.98,43.06-33.33,8.16-4.12,15.35-3.26,22.7,2.13,12.48,9.15,23.83,19.4,24.61,35.88,.63,13.32-.76,26.73-7.25,39.04-7.2,13.65-14.28,27.37-20.95,41.27-3.33,6.94-.43,14.46,5.82,17.64,6.16,3.13,13.91,.89,18.07-5.44,1.55-2.36,2.59-5.05,3.93-7.56,7.84-14.69,15.08-29.75,23.76-43.92,6.74-10.99,14.24-21.92,23.28-31.01,17.07-17.18,39.59-21.11,62.8-21.62,13.55-.3,27.16,.86,38.67,8.59,34.12,22.93,53.15,58.65,38.9,100.77-6.48,19.15-15.47,37.45-23.1,56.22-3.2,7.88-6.08,15.91-8.63,24.01-1.63,5.19,.04,9.78,5.07,12.39,4.58,2.38,9.24,1.03,12.23-2.48,5.25-6.13,9.99-12.76,14.39-19.54,7.73-11.92,14.84-24.24,22.65-36.11,2.37-3.6,5.86-6.72,9.44-9.2,4.68-3.25,9.67-3.12,14.74,.3,15.76,10.61,23.52,24.26,22.11,44.18-1.54,21.84-8.19,41.08-20.46,58.98-23.5,34.26-52.14,63.1-86.91,85.98-46.24,30.43-85.14,68.7-119.87,111.71-22.96,28.43-47.67,55.46-71.94,82.81-15.28,17.22-35.74,24.56-57.77,28.68-30.19,5.65-59.82,2.16-89.23-4.95-5.46-1.32-11.01-3.26-15.85-6.07-27.59-16.05-49.94-37.86-65.93-65.35-7.58-13.03-8.91-28.58-9.58-43.68-.39-8.93-.07-17.89-.07-26.83h-.4Z"
       id="path16"
       style="fill:none" />
    <path
       class="cls-1"
       d="M812.27,1431.76c-2.62-1.95-4.18-3.11-5.73-4.26-.33,.1-.74,.09-.97,.3-8.91,8.09-18.48,15.57-26.54,24.43-13.38,14.7-25.23,30.83-38.9,45.23-5.17,5.44-10.26,10.53-10.99,17.72-1.28,12.73-9.58,20.08-18.58,26.96-8.69,6.64-17.59,13.1-26.97,18.7-15.6,9.31-28.01,22-40.27,35.08-17.12,18.26-38.51,21.57-61.53,14.81-17.07-5.02-26.32-21.68-23.25-39.18,.27-1.55,.81-3.26,1.78-4.43,9.29-11.26,18.67-22.44,28.11-33.57,1.56-1.84,4.55-3.02,5.12-5,.89-3.14,1.58-7.68-.04-9.82-1.59-2.11-6.84-3.53-9.28-2.48-5.07,2.19-10.06,5.57-13.79,9.64-9.02,9.86-17.45,20.29-25.82,30.72-4.15,5.18-7.97,10.37-17.5,9.77-1.56-5.01-4.16-10.51-4.87-16.25-1.29-10.45-1.57-21.02-2.03-31.56-.3-6.82,3.98-11.43,8.86-15.18,8.04-6.17,16.44-11.88,24.68-17.8,4.94-3.55,9.83-7.18,14.83-10.64,3.16-2.18,4.43-4.92,2.36-8.26-2.42-3.89-6.13-3.61-9.58-1.64-2.44,1.39-4.36,3.67-6.74,5.21-6.03,3.91-12.18,7.63-19.08,11.92-3.02-12.92,2.97-21.87,8.26-30.71,3.52-5.88,8.38-10.96,12.62-16.41,13.72-17.61,27.43-35.22,41.14-52.84,16.35-21.02,36.85-37.75,56.79-55.06,3.94-3.42,7.6-7.27,10.86-11.35,12.17-15.24,24.57-30.33,36-46.11,8.79-12.14,16.65-25,24.19-37.98,6.03-10.38,12.87-19.51,24.11-24.63,2.19-1,4.93-2.02,6.08-3.86,5.07-8.12,12.2-6.15,19.41-4.71,33.14,6.61,63.35,19.69,90.14,40.47,9.31,7.22,18.93,14.02,28.21,21.27,7.29,5.7,11.84,13.06,13.34,22.47,1.41,8.85,.2,16.07-5.67,23.67-12.15,15.73-22.74,32.65-34.23,48.91-17.78,25.16-35.77,50.16-54.54,76.45Z"
       id="path17"
       style="fill:none" />
    <path
       class="cls-1"
       d="M453.87,1338.02c-23.73,24.72-22.7,54.23-19.05,84.19,.89,7.32,6.78,12.18,13.13,12.07,6.93-.12,12.42-5.61,12.95-13.6,.3-4.43-.44-8.93-.36-13.39,.16-9.33-.19-18.75,1.01-27.95,2.91-22.25,21.83-33.08,42.89-25.66,25.77,9.08,41.75,28.42,55.7,51.54-5.88,9.11-11.12,18.81-17.85,27.32-11.41,14.42-17.92,30.59-21.37,48.47-2.75,14.25-7.34,28.16-9.7,42.45-2.77,16.77,.68,33.22,6.79,48.9,4.45,11.42,13.29,16.97,26.5,15.46,.31,2.3,.72,4.21,.8,6.13,.87,20.98,12.8,33.53,31.44,40.56,15.52,5.86,31.57,6.79,48.29,2.74,1.93,4.36,3.56,8.41,5.5,12.31,2.41,4.84,5.42,9.22,11.47,9.81,5.02,.49,6.65,3.64,7.31,8.17,1.22,8.43,2.97,16.79,4.14,25.23,1.89,13.58-1.29,17.11-14.29,20.55-13.22,3.5-25.41,1.86-37.96-2.94-20.32-7.78-38.34-19.37-55.74-32.03-10.88-7.92-17.24-19.06-21.09-31.93-8.37-27.95-17.31-55.74-25.61-83.72-9.3-31.38-25.45-58.68-47.55-82.64-8.26-8.96-16.23-18.2-24.66-26.99-13.34-13.9-18.3-30.64-16.02-49.25,2.71-22.09,8.78-43.04,26.3-58.67,4.57-4.08,9.26-7.81,17.05-7.15Z"
       id="path18"
       style="fill:none" />
    <path
       class="cls-1"
       d="M407.63,1076.9c-.88,14.53-1.77,29.23-2.69,44.39-24.76-8.91-37.24-28.42-42.27-69.31,7.34,5.54,13.72,11.51,21.13,15.62,7.23,4.02,15.51,6.14,23.84,9.3Z"
       id="path19"
       style="fill:none" />
    <path
       class="cls-1"
       d="M426.17,1043.51c16.59-21.11,40.84-30.48,59.8-50.35,4,18-1.15,30.48-11.17,41.22-10.82,11.59-32.1,15.72-48.63,9.13Z"
       id="path20"
       style="fill:none" />
    <path
       class="cls-1"
       d="M361.51,987.87c3.77,17.16,8.86,31.78,20.74,43.16-9.13,4.65-16.85,1.58-25.09-8.63-6.87-8.52-5.52-23.33,4.35-34.53Z"
       id="path21"
       style="fill:none" />
    <path
       d="M1405.44,137.62c-3.5,3.93-5.14,7.36-7.76,8.44-13.28,5.49-21.59,16.97-32.13,25.72-31.06,25.78-54.66,57.61-74.7,92.36-30.21,52.4-58.38,105.99-94.68,154.76-11.79,15.84-20.11,34.26-29.96,51.52-13.48,23.61-26.89,47.26-40.37,70.87-14.29,25.03-28.61,50.04-42.98,75.02-1.96,3.41-4.25,6.64-7.97,12.42-.4-4.42-.83-6.14-.66-7.8,5.92-56.76,21.75-111.31,46.92-161.83,34.7-69.67,69.88-139.62,122.89-198.26,11.43-12.64,20.9-27.09,32.54-39.51,19.98-21.33,40.61-42.1,61.71-62.33,8.12-7.78,17.67-14.63,27.7-19.68,8.05-4.05,17.7-5.39,26.82-6.58,3.54-.46,7.56,2.78,12.64,4.87Z"
       id="path22" />
    <path
       d="M788.1,850.22c10.88,12.92,24.23,17.04,37.85,17.98,16.91,1.16,34.1,.92,50.96-.78,13.04-1.31,25.76-5.79,38.55-8.84,1.96,12.49,.13,16.07-11.5,20.85-1.5,.61-3.59,.71-4.45,1.8-8.44,10.77-20.71,13.26-33.06,15.33-5.88,.98-11.96,1.62-17.89,1.3-18.61-1.02-37.19-2.99-53.26-13.64-5.57-3.69-10.11-8.94-15.35-13.68,2.61-6.52,4.84-12.08,8.14-20.32Z"
       id="path23" />
  </g>
</svg>
