<?xml version="1.0" encoding="UTF-8" standalone="no"?>
<svg
   id="_イヤー_1"
   viewBox="0 0 3309.46 3369.17"
   version="1.1"
   sodipodi:docname="CoconeRu.Logo.svg"
   inkscape:version="1.4.2 (f4327f4, 2025-05-13)"
   inkscape:export-filename="CoconeRu.Logo.White.png"
   inkscape:export-xdpi="96"
   inkscape:export-ydpi="96"
   xmlns:inkscape="http://www.inkscape.org/namespaces/inkscape"
   xmlns:sodipodi="http://sodipodi.sourceforge.net/DTD/sodipodi-0.dtd"
   xmlns="http://www.w3.org/2000/svg"
   xmlns:svg="http://www.w3.org/2000/svg">
  <sodipodi:namedview
     id="namedview66"
     pagecolor="#ffffff"
     bordercolor="#000000"
     borderopacity="0.25"
     inkscape:showpageshadow="2"
     inkscape:pageopacity="0.0"
     inkscape:pagecheckerboard="0"
     inkscape:deskcolor="#d1d1d1"
     inkscape:zoom="0.08520952"
     inkscape:cx="1073.8237"
     inkscape:cy="974.06956"
     inkscape:window-width="1152"
     inkscape:window-height="650"
     inkscape:window-x="-6"
     inkscape:window-y="-6"
     inkscape:window-maximized="1"
     inkscape:current-layer="_イヤー_1" />
  <defs
     id="defs1">
    <style
       id="style1">.cls-1{fill:#fff;}</style>
  </defs>
  <path
     d="M387.76,438.49c-16.24,9.67-24.97,21.36-31.99,34.93-8.26,15.96-17.12,31.62-26.03,47.24-18.49,32.43-46.41,49.36-83.71,52.7-33.12,2.97-64.97,1.89-97.8-6.87-40.37-10.77-82.14-17.29-124.57-15.15-6.71,.34-13.55-1.89-23.67-3.45,5.27-6.83,7.85-10.19,10.44-13.53,12.83-16.53,26.77-32.32,38.31-49.71,37.22-56.08,88.68-86.86,156.16-85.91,26.8,.38,51.9-5.16,77.48-10.25,11.02-2.19,21.93-4.89,32.95-7.08,26.38-5.24,36.27-17.34,34.01-43.67-1.53-17.9-3.6-35.82-6.75-53.5-3.09-17.35-2.62-34.03,1.7-51.18,8.82-35.03,19.08-69.39,38.15-100.46,2.35-3.83,4.13-8.51,7.46-11.17,33.15-26.48,59.29-61.84,99.2-79.65,12.57-5.61,20.22-14.87,26.55-26.2,2.98-5.34,6.46-10.39,9.72-15.58,1.67,.54,3.34,1.08,5.02,1.62-.61,11.37-.1,22.93-2.01,34.07-9.21,53.8-7.71,107.53,2.62,160.76,4.97,25.59-.69,49.07-7,72.88-1.42,5.34-5.66,10.5-9.84,14.44-24.54,23.14-49.48,45.85-74.22,68.79-4.94,4.58-9.33,9.75-14.38,14.19-15.93,14.01-10.11,37.25,9.24,45.89,14.37,6.42,28.37,13.8,43.1,19.24,51.33,18.96,102.93,37.15,158.29,40.42,2.93,.17,5.88,.02,8.2,.02,1.66-1.67,3.33-2.55,3.64-3.77,7.02-27.41,17.78-32.78,44.85-22.37,5.39,2.07,10.87,4.98,16.44,5.31,23.6,1.41,29.78,7.86,28.68,31.81-.13,2.9-.69,5.78-1,8.22,1.73,1.44,2.81,3.14,3.89,3.14,83.94-.1,167.88-.19,251.82-.6,54.02-.27,108.03-1.22,162.04-1.47,21.8-.1,43.01-2.84,64.59-6.55,35.36-6.07,71.44-8.66,107.34-10.71,79.38-4.54,158.83-8.01,238.26-11.55,26.92-1.2,53.9-1.15,80.85-1.94,6.71-.2,13.41-1.31,20.1-2.17,40.01-5.1,79.97-10.62,120.06-15.05,7.68-.85,15.8,2.65,23.76,3.93,5.79,.93,11.68,2.41,17.45,2.13,92.17-4.39,184.37-8.48,276.48-13.96,26.8-1.59,53.25-9.09,80.05-10.82,83.84-5.41,167.76-9.68,251.68-13.66,24.16-1.15,47.35-4.25,70.45-12.35,15.81-5.54,33.55-5.59,50.45-7.96,5.88-.83,11.93-.69,17.7-1.95,24.84-5.44,49.6-11.23,74.39-16.9,1.46-.33,3.24-1.48,4.31-1,22.15,9.99,40.24-5.89,59.97-9.99,23.97-4.99,46.46-16.73,72.1-14.35,4.63,.43,9.62-3.12,14.16-4.73,4.17-17.79-11.32-39.86,13.83-50.53,21.35-9.06,31.31-7.66,46.94,7.61,17.69-4.04,34.4-30.47,53.56-4.46,16.86-4.8,32.52-9.97,48.53-13.56,9.21-2.06,19.09-8.5,28.33,3.09,2.54,3.19,12.79,.49,19.47,.07,17.94-1.14,35.94-1.83,53.77-3.99,20-2.41,40.19-4.86,59.61-9.9,14.59-3.78,27.62-3.37,41.68,1.28,16.88,5.57,34.64,8.52,51.39,14.41,7.07,2.49,14.54,8.47,18.2,14.92,5.03,8.86,8.11,19.48,9.4,29.68,6.59,52.04,12.24,104.21,18.47,156.3,1.06,8.86,2.95,17.69,5.23,26.32,6.29,23.81,13.04,47.51,19.53,71.27,7.47,27.34,15.1,54.65,22.05,82.13,1.07,4.24,.58,11.17-2.12,13.61-5.58,5.03-10.78,.72-14.98-4.31-13.89-16.62-27.66-33.35-42.01-49.56-14.86-16.78-29.12-34.47-50.04-44.35-5.98-2.82-13.03-6.66-18.94-5.76-28.68,4.4-52.71-8.89-77.67-18.62-16.05-6.25-31.47-14.22-47.71-19.88-10.47-3.65-21.89-4.56-32.91-6.61-5.88-1.09-13.27-.05-17.44-3.26-24.07-18.56-54.23-7.45-82.41-21.41,.9,14.93,.95,25.97,2.34,36.84,6.1,47.56,12.63,95.06,18.89,142.59,1.37,10.39,3.54,20.89,3.18,31.27-2.17,63.32,7.78,125.53,15.66,188,8.63,68.42,15.64,137.05,24.44,205.45,5.16,40.12,13.15,79.88,18.62,119.97,9.13,66.87,15.56,134.15,26.22,200.76,13.88,86.75,16.58,174.57,28.27,261.43,4.06,30.18,5.48,61.21,17.17,90.07,4.58,11.3,3.83,20.93-5.05,30.88-9.93,11.12-16.98,24.76-26.48,36.31-12.29,14.95-25.71,28.97-38.77,43.28-5.04,5.53-11.15,10.21-15.52,16.2-30.76,42.19-69.55,76.39-109.19,109.61-16.61,13.92-34.35,26.83-52.85,38.09-17.62,10.72-31.37,24.81-45.58,39.34-18.78,19.2-39.09,37.37-60.8,53.15-61.55,44.73-117.17,95.73-167.98,152.2-13.03,14.49-26.31,28.81-40.33,42.33-5.12,4.94-12.31,8.84-19.23,10.62-32.62,8.42-65.11,18.52-98.32,23.17-50.88,7.11-98.65,22.81-145.79,42.14-59.58,24.43-120.09,46.63-179.24,72.03-29.09,12.49-58.24,23.56-89,30.78-4.62,1.08-9.97,4.59-12.36,8.55-7.06,11.7-18.47,14.4-30.2,17.29-30.41,7.47-62.78,6.34-91.58,21.35-4.9,2.55-11.8,1.21-17.76,1.78-22.36,2.16-44.67,5.2-67.08,6.27-14.87,.71-29.94-.67-44.79-2.33-78.3-8.74-156.11-20.45-232.46-40.41-7.85-2.05-16.03-4.78-22.67-9.25-42.34-28.56-86.54-53.68-133.7-73.32-9.35-3.9-20.05-4.43-29.77-7.6-11.28-3.68-22.6-7.73-33.15-13.1-20.02-10.2-39.6-21.3-59.17-32.36-6.49-3.67-13.08-7.64-18.48-12.7-47.11-44.09-104.15-76.4-147.76-124.68-3.71-4.11-10.41-9.24-14.7-8.43-14.8,2.78-21.39-6.98-30.16-15.22-73-68.59-130.45-150.24-192.24-228.23-14.06-17.75-32.51-26.64-53.98-30.36-13.86-2.4-15.21-3.54-16.19-18.72-5.61-86.77-10.71-173.58-17.08-260.29-4.45-60.55-10.79-120.95-15.97-181.45-1.34-15.68-1.06-31.5-2.27-47.19-4.84-62.77-10.45-125.49-14.84-188.29-3.14-44.86-4.05-89.87-7.26-134.72-8.22-114.67-2.32-229.47-4.43-344.19-.74-40.43-5.37-80.77-7.57-121.18-1.62-29.76-1.17-59.66-3.66-89.33-1.23-14.6-5.21-29.58-24.02-33.73-12.32-2.72-24.11-7.83-36.14-11.88-2.13-.72-4.89-.89-6.26-2.34-14.49-15.5-35.3-14.31-53.24-20.73-28.21-10.09-56.87-19.53-83.72-32.58-16.47-8-30.03-22.07-44.66-33.72-8.71-6.93-16.97-14.44-26.3-22.44Zm138.05,48.96c-5.71-2.47-11.42-4.94-17.13-7.41-.38,1.58-.76,3.17-1.13,4.75,6.28,.68,12.56,1.35,18.83,2.03,15.63,14.49,44.46,23.88,61.73,18.42-21.12-9.74-42.04-12.62-62.3-17.79ZM2601.09,1808.75c8.97-2.5,19.45-3.11,27.02-8.12,8.82-5.83,15.66-4.04,22.7,.38,5.54,3.48,10.08,8.62,14.86,13.23,12.99,12.53,26.23,19.74,46.08,13.92,27.76-8.13,56.54-12.76,84.9-18.84,10.24-2.2,20.79-3.38,30.69-6.58,20.63-6.67,40.6-15.56,61.44-21.36,31.33-8.71,42.39-20.48,44.28-52.02,.4-6.73-.02-13.51,.3-20.24,3.84-80.68-13.91-159.58-19.72-239.47-2.28-31.39-8.05-62.67-8.23-94.02-.45-74.51-8.54-148.44-18.47-221.88-20.23-149.5-28.61-300.05-44.76-449.87-2.68-24.83,1.85-51.06-11.83-74.38-2.07-3.53-1.21-8.82-1.58-13.3-1.17-14.18-1.92-28.41-3.49-42.55-2.95-26.52-6.36-52.98-9.67-80.22-32.45-3.82-60.32,5.29-88,13.46-32.07,9.46-63.28,22.48-97.63,10.07-9.75-3.52-20.42-4.4-30.41-7.38-18.35-5.48-33.46-.08-47.92,11.39-19.21,15.23-41.26,23.79-65.87,26.41-17.86,1.9-35.81,4.32-53.22,8.56-19.49,4.75-38.43,6.03-57.61-.22-26.85-8.75-54.08-10.19-82.01-6-14.03,2.11-28.63,3.65-42.62,2.17-25.14-2.67-50.05-7.65-75-12-17.58-3.07-34.99-9.01-52.61-9.56-34.45-1.08-69.01,.34-103.49,1.51-11.13,.38-22.39,2.39-33.23,5.09-27.78,6.91-55.76,11.53-84.48,11.09-53.25-.83-106.5-1.51-159.75-2.2-5.97-.08-11.97-.14-17.91,.32-41.81,3.21-83.57,8.47-125.43,9.43-68.97,1.57-138.03-.75-207.01,.64-86.86,1.75-173.67,5.59-260.5,8.53-.75,.03-1.5,.08-2.25,.1-47.12,1.48-94.23,3.81-141.35,4.04-20.05,.1-39.93-.85-60.08,1.03-20.65,1.92-42.4,3.44-62.35-.91-42.67-9.29-82.94-1.02-124.49,8.73,1.69,10.43,3.75,19.82,4.65,29.33,2.26,23.88,3.79,47.82,5.99,71.71,7.35,79.89,14.41,159.82,22.46,239.64,7.6,75.31,16.05,150.54,24.67,225.75,4.01,34.98,12.52,69.74,13.27,104.72,1.2,55.73,11.02,110.31,17.14,165.32,8.62,77.45,20.93,154.49,32.1,231.64,5.8,40.05,12.42,79.99,18.92,119.93,4.57,28.1,9.84,56.09,14.24,84.22,2.18,13.95,9.6,23.23,22.03,28.98,32.6,15.06,65.27,29.99,97.84,45.12,22.38,10.39,44.46,21.45,67.03,31.41,19.1,8.44,38.35,16.86,58.19,23.22,20.34,6.53,21.09,5.11,31.52-13.11,6.66-11.64,11.97-24.89,21.22-34.05,16.3-16.12,34.69-30.27,53.07-44.11,15.79-11.9,24.02-25.42,20.33-46.12-1.61-8.99-1.45-21.34,3.53-27.91,17.08-22.58,35.12-44.9,55.65-64.29,23.34-22.06,50.02-40.55,74.67-61.28,7.32-6.15,13.29-14.19,18.86-22.08,24.59-34.83,47.51-70.93,73.45-104.71,50.37-65.61,81.23-139.37,97.2-219.91,2.75-13.86,3.12-28.28,6.82-41.84,6.6-24.21,20.44-44.7,35.92-64.32,21.44-27.17,50.47-38.96,83.41-43.45,8.56-1.17,16.59,.32,18.56,5.35-6.88,34.81-14.51,65.28-18.63,96.22-5.84,43.85-11.27,87.73-25.18,129.84-6.98,21.14-17.07,41.24-25.28,62-3.05,7.71-4.72,15.96-8.02,27.45,7.15-2.79,10.65-3.06,12.29-4.96,17.5-20.2,35.12-40.32,51.8-61.2,6.95-8.7,11.21-19.49,17.58-28.73,43.67-63.37,88.9-125.68,125.99-193.4,4.1-7.49,15.01-11.62,23.34-16.29,4.4-2.47,10.1-2.52,15.1-4.03,16.4-4.97,21.39-3.83,29.26,10.69,12.68,23.39,20.61,48.59,19.68,75.31-.43,12.39-4.36,25.07-8.83,36.8-5.56,14.6-13.59,28.24-20.04,42.53-8.64,19.11-16.39,38.63-25.23,57.64-14.17,30.48-30.07,60.22-43.08,91.17-12.08,28.73-27.82,54.62-49.61,76.63-21.06,21.27-43.03,41.65-64.47,62.55-3.24,3.16-5.8,7.02-10.56,12.88,38.39-1.44,70.72-8.64,101.32-27.23,31.53-19.16,67.62-28.05,103.84-34.96,3.62-.69,7.71-1.49,11.08-.52,11.89,3.44,21.73,3.81,27.76-10,1.17-2.68,7.97-4.17,12.1-4.04,11.16,.36,22.29,1.84,33.43,2.97,13.24,1.34,26.44,3.61,39.7,4.01,31.44,.96,63.17-.89,91.77,16.44,4.15,2.51,10.14,2.17,15.32,2.75,43.21,4.77,82.81,18.48,119.34,42.89,29.6,19.78,61.35,36.35,91.53,53.98,16.95-10.83,21.48-11.82,32.31-.17,15.77,16.97,29.51,35.82,44.65,53.41,5.07,5.9,11.66,10.52,17.72,15.53,12.36,10.22,25.38,19.72,37.03,30.69,5.83,5.5,9.24,13.56,12.59,18.69,13.45-14.86,25.54-29.74,39.28-42.92,10.46-10.03,24.28-6.27,33.17,6.9,2.06,3.05,4.49,5.86,7.97,10.35Zm-455.03,303.08c6.27-1.42,11.36-2.23,16.23-3.74,62.97-19.55,126.23-38.24,188.73-59.17,41.09-13.76,81.27-30.34,121.51-46.52,20.77-8.35,40.77-18.62,61.13-27.98,6.79-3.12,13.73-5.91,20.43-9.21,30.82-15.19,61.7-30.28,92.26-45.99,5.77-2.96,11.31-7.8,14.95-13.15,6.27-9.22,11.23-19.38,16.25-29.39,6.32-12.6,5.53-23.47-5.4-32.16-19.06-15.15-38.42-31.21-66.13-19.63-12.98,5.43-28.22,6.6-39.85,13.85-22.08,13.77-28.43,49.41-15.35,72.14,4.64,8.07,9.29,16.13,16.04,27.85-42.97-8.8-47.4-40.32-52.04-70q-19.67-3.15-28.64-19.05c-2.95-5.21-5.36-10.92-9.16-15.44-29.36-34.82-66.18-59.86-108.58-82.31-2.38,4.43-4.82,8.98-6.47,12.04-28.06-30.6-57.45-55.68-93.54-70.92-13.88-5.86-29.16-7.07-40.19-19.73-3.69-4.24-12.4-4.69-19-5.7-19.26-2.95-38.66-5.02-57.9-8.07-5.62-.89-13.26-2.37-15.86-6.3-6.94-10.48-15.95-8.33-25.74-8.32-14.81,.02-30.3,.77-44.24-3.2-13.32-3.8-24.79-14.17-39.92-6.14-1.39,.74-4.49-.55-6.19-1.76-12.73-9.06-25.77-4.83-38.89-1.37-17.64,4.66-33.09,16.93-52.63,15.05-1.34-.13-2.86,.84-4.19,1.51-11.77,5.89-23.51,11.82-33.8,17.01-9.3,28.11-39.42,17.24-55.39,31.09,1.58,3.28,3.38,7,6.04,12.52-23.15,5.34-3.45,28.78-21.02,38.01,13.29,5.66,23.62,10.06,37.45,15.94-10.47,3.34-16.5,5.27-23.41,7.48,4.1,6.16,7.33,11.02,12.22,18.38-24.68,1.6-39.82-9.77-54-23.44-18.21-17.56-35.34-36.23-58.62-47.85-19.4-9.68-36.95-8.68-54.92,4.26,.55,4.92,1.94,9.47,1.22,13.64-.5,2.87-3.86,7.2-6.11,7.3-2.84,.12-6.88-2.77-8.48-5.5-1.75-2.97-1.57-7.22-1.77-10.94-1.01-18.82,4.99-35.45,16.38-50.2,11.86-15.36,24.65-30.04,35.79-45.89,20.66-29.39,41.16-58.94,60.33-89.3,19.99-31.66,37.06-65.2,57.77-96.34,19.06-28.65,41.4-55.11,62.01-82.75,5.81-7.79,11.43-15.92,15.75-24.59,14.01-28.14,20.65-57.52,14.51-89.2-2.41-12.44-8.18-21.23-20.4-23.96-11.96-2.67-19.87,5.16-25.9,14.02-5.03,7.38-8.39,15.87-12.93,23.6-13.6,23.16-26.93,46.5-41.32,69.17-9.6,15.13-21.3,28.91-31.21,43.85-17.39,26.2-34.12,52.84-51.13,79.29-21.24,33.02-46.04,62.27-78.7,85.28-19.38,13.65-36.54,31.19-52.28,49.1-23.16,26.35-43.48,55.18-66.35,81.81-13.99,16.29-27.01,34.62-48.47,42.43-16.61,6.05-33.6,11.04-55.04,18,15.3-19.44,21.96-39.47,40.38-51.57,14.28-9.38,29.41-18.7,40.63-31.21,23.86-26.61,46.12-54.76,67.74-83.26,22.96-30.26,48.82-58.74,59.71-96.81,9.83-34.38,23.41-67.34,24.68-104.23,1.55-44.95,9.15-89.39,26.37-131.56,2.35-5.75,4.03-11.76,7.85-23.08-15.17,6.27-26.86,8.39-34.97,14.95-27.09,21.9-45.18,48.87-47.06,85.77-1.4,27.5-3.67,55.61-15.92,81.09-20.12,41.84-40.96,83.33-61.62,124.91-12.93,26.02-25.45,52.27-39.38,77.75-7.07,12.94-15.93,25.2-25.61,36.34-14.68,16.89-31.39,32.01-46.12,48.87-16.21,18.56-31.09,38.28-46.72,57.35-1.83,2.23-4.81,3.49-7.13,5.36-27.4,22.03-55.14,43.65-82.01,66.31-15.62,13.17-15.88,16.23-3.75,33.73,6.91,9.97,6.09,16.71-1.55,25.64-9.13,10.67-16.43,22.9-24.91,35,13.62,13.79,18.45,29.97,20.76,47.4,.81,6.08,7.08,13.47,5.12,17.4-2.95,5.93-10.33,11.51-16.92,13.36-11.92,3.34-24.62,4.08-37.05,5.32-3.92,.39-8.03-1.09-13.09-1.88-2.93,36.36,7.97,66.69,27.51,94.22,3.1,4.36,9.42,7.58,14.85,8.94,27.72,6.94,55.7,11.64,84.48,6.9,6.56-1.08,13.75-1.99,20.01-.41,13.44,3.39,25.02-.23,36.7-5.99,5.66-2.79,11.73-4.77,20.07-8.09-1.78,21.04-19.19,24.34-31.06,35.72,8.15,5.58,14.89,11.18,22.46,15.19,21.99,11.64,44.78,18.35,70.52,18.82,46.35,.84,92.52,7.14,139.08,1.48,12.16-1.48,20.05-6.02,28.86-13.85,13.24-11.77,27.65-26.75,43.64-29.93,30.95-6.16,48.51-33.68,77.28-41.46,.62-.17,1.18-.96,1.56-1.58,9.68-15.75,27.58-9.98,41.07-15.71,2.21,5.37,4.41,10.73,6.11,14.87-4.92,17.41-20.59,13.99-31.44,19.31-32.09,15.75-64.26,31.42-95.6,48.58-9.41,5.15-18.75,13.69-23.78,23.02-18.86,34.97-35.56,70.94-40.63,111.21-2.58,20.49,.74,38.19,16.78,52.49,2.81-2.19,5.39-4.2,8.45-6.59,2.02,8.52,3.87,16.33,5.83,24.6,14.79,1.91,29.3,7.89,36.81-11.62,12.05,23.97,15.81,27.37,38.24,21.71,21.54-5.44,42.51-13.7,63-22.43,7.77-3.31,14.66-10.53,19.92-17.5,12.17-16.13,23.11-33.18,34.51-49.87,9.26-13.56,14.17-27.56,6.62-43.93-1.99-4.32-1.14-9.95-1.44-13.28,41.85-25.49,76.63-56.94,111.57-87.48,8.92,9.31,25.83,3.96,26.65,20.8,18.53-6.09,35.01-8.09,51.56,.08,7.72,3.81,13.28,1.03,18.53-6.68,11.24-16.53,24.01-32.03,36.55-48.48-8.28-1.28-16.52-2.56-24.01-3.72-8.13-21.23,11.73-28.91,19.64-40.37,14.42-20.88,33.96-38.63,60.91-44.86,5.38,10.05,4.99,17.6-2.14,25.63-4.09,4.61-5.59,11.49-8.42,17.26-1.55,3.16-2.8,8.04-5.31,8.9-13.11,4.52-12.97,16.44-13.54,26.09-.86,14.73,1.34,29.64,2.32,45.62Zm-136.96,315.68c7.59-2.99,12.9-5.79,18.56-7.2,31.25-7.81,62.51-15.59,93.89-22.8,55.97-12.87,112.45-20.97,165.75-46.7,94.51-45.63,190.76-87.5,279.46-144.34,18.28-11.72,37.35-22.33,56.6-32.39,38.76-20.25,75.41-43.19,105.35-75.69,5.04-5.48,11.17-10.02,17.09-14.61,39.14-30.28,78.36-60.41,111.2-97.89,5.84-6.66,13.58-11.64,20.33-17.52,15.21-13.25,31.72-25.34,45.21-40.16,23.63-25.98,45.41-53.64,67.85-80.7,.97-1.17,.73-3.36,1.6-7.99-7.36,6.36-12.78,10.38-17.41,15.16-70.18,72.45-147.03,136.59-232.07,191.2-65.59,42.12-130.06,86.02-194.17,130.37-34.51,23.88-67.01,50.65-100.85,75.53-18.1,13.31-36.89,25.71-55.81,37.82-7.36,4.71-16.09,9.27-24.93-3.13,4.69-4.51,8.98-9.37,13.99-13.3,10.02-7.87,20.48-15.18,30.69-22.81,85.87-64.18,168.79-132.41,261-187.86,37.26-22.4,74.73-44.84,109.71-70.54,43.43-31.91,85.6-65.82,125.86-101.63,20.65-18.37,40-37.95,62.5-54.39,13.27-9.69,23.82-23.12,36.86-36.13-19.67-7.33-34.11-3.74-47.12,6.96-21.98,18.09-44.99,35.13-65.49,54.78-62.75,60.13-135.84,106.14-208.5,152.35-34.3,21.81-70.08,40.61-102.96,65.43-34.37,25.95-73.98,45.39-112.55,65.24-33.27,17.12-68.68,30.01-102.44,46.25-33.66,16.2-70.2,26.6-100.66,49.3-7.88,5.87-15.59,11.97-23.38,17.97-2.3-6.47-2.64-11.61-.23-14.21,15.11-16.29,27.94-34.73,49.77-44.13,35.78-15.41,70.66-32.89,106.22-48.83,49.96-22.4,99.49-45.13,143.47-78.79,20.7-15.85,44.21-28.18,67.05-41.04,30.01-16.89,61.32-31.55,90.82-49.25,70.77-42.48,135.39-93.66,199.9-144.88,1.45-1.15,2.17-3.24,3.81-5.81-3.18,.14-5.63-.45-7.36,.42-56.84,28.66-114.46,55.93-170.15,86.69-48.36,26.72-94.27,57.83-141.81,86.09-14.93,8.88-29.8,20.68-49.61,15.29-1.82-.5-4.22,1.23-6.37,1.86-12.91,3.82-26.31,6.47-38.65,11.66-29.48,12.39-60.74,21.31-85.43,43.5-9.35,8.4-19.86,15.96-30.91,21.9-32.28,17.37-65.02,33.91-97.79,50.37-7.9,3.97-16.35,7.5-24.96,9.21-13.16,2.62-26.76,2.95-40.01,5.21-51.69,8.83-103.26,18.29-154.98,26.9-10.91,1.82-22.24,1.37-33.39,1.43-14.97,.09-29.95-.37-44.93-.45-.85,0-1.7,1.29-2.32,1.79,3.83,1.71,7.57,3.37,13.21,5.89-18.48,17.13-48.03,11.26-60.9,38.31,11.93-2.74,21.94-4.46,31.6-7.36,30.83-9.26,61.48-19.13,92.32-28.35,7.81-2.33,16.2-5.89,29.08,1.31-40.2,21.91-83.24,26.39-118.87,47.57,.35,1.47,.7,2.94,1.06,4.41,22.38-1.49,44.76-2.99,67.14-4.48,.55,1.41,1.09,2.83,1.64,4.24-7.18,4.7-13.78,11.2-21.66,13.71-16.3,5.18-33.16,8.91-50.02,12-19.56,3.59-39.37,5.85-62.71,9.21,20.82,17.35,43.14,2.98,63.18,12.68-13.98,3.73-25.96,5.75-37.03,10.11-35.31,13.89-71.2,26.8-105.13,43.6-32.43,16.05-65.67,9.46-98.56,8.81-13.06-.26-26.26-5.73-39.64-1.4-8.62,2.79-14.39,.26-18.79-7.34-14.13-24.35-35.4-33.43-62.75-28.38-26.19,4.83-48.77-9.56-73.72-14.3,22.68-6.7,45.35-13.4,68.03-20.1-9.62-4.6-18.36-6.78-27.24-8.07-97.88-14.17-195.86-27.75-293.63-42.65-19.02-2.9-37.38-10.47-55.78-16.69-3.61-1.22-5.98-6.11-8.92-9.31,.93-1.5,1.85-3,2.78-4.5,7.56,2.03,15.18,3.88,22.68,6.15,8.58,2.6,16.87,7.09,25.59,8.1,31.93,3.69,64.09,5.38,95.96,9.45,59.45,7.59,118.87,15.55,178.03,25.06,16.23,2.61,28.11,1.65,36.75-13-1.92-2.23-3.57-4.16-5.28-6.15,19.63-8.08,39.52-13.96,55.26-31.58-44.14-26.77-90.29-14.95-134.85-17.15,7.98,2.69,15.96,5.37,27.65,9.31-39.65,7.73-75.29,7.35-111.4,5.77-33.69-1.48-62.74-10.83-89.12-31.77-13.95-11.08-29.45-20.94-45.64-28.33-44.39-20.25-86.02-45.3-128.45-69.1-25.88-14.52-54.08-26.83-82.78-33.57-14.65-3.44-25.03-10.06-36.7-17.15-34.55-20.97-69.3-41.63-104.2-62-6.29-3.67-13.71-5.39-20.86-8.11-5.06,12.43-.79,19.61,9.32,24.86,19.16,9.94,39.34,18.5,56.96,30.72,35.55,24.65,69.59,51.49,104.46,77.14,9.04,6.65,18.68,12.55,28.35,18.26,38.69,22.83,77.53,45.4,116.22,68.23,3.97,2.34,7.3,5.78,14.68,11.76-10.68-1.62-19.24-5.17-21.36-2.85-8.79,9.66-15.86,3.05-23.32-.44-10.86-5.08-21.61-10.42-32.18-16.07-7.92-4.24-15.21-4.85-23.13,1.87,8.95,7.93,17.55,15.55,26.16,23.17-.69,1.32-1.38,2.65-2.07,3.97-8.96-2.86-18.08-5.31-26.86-8.65-28.6-10.89-57.23-21.74-85.49-33.48-6.54-2.71-11.96-8.53-17.36-13.5-30.32-27.89-50.97-63.22-69.16-99.04-17.54-34.53-49.24-48.32-79.6-69.4,.62,9.05,1.04,15.11,1.46,21.32-3.52,.86-6.53,2.54-7.6,1.72-20.49-15.81-40.75-31.92-61.05-47.96-.44,8.41,1.21,16.1,5.13,22.39,5.93,9.5,13.16,18.24,20.32,26.91,44.42,53.73,89.52,106.9,133.06,161.32,10.04,12.55,20.03,16.21,35.42,17.58,35.71,3.17,71.68,8.06,99.32,35.21,4.26,4.19,9.85,7.12,13.75,11.57,20.39,23.24,48.37,34.85,74.59,49.05,22.97,12.43,46.5,23.82,69.68,35.86,1.6,.83,2.36,3.29,4.3,6.16-25.2,6.54-45.52-12.25-69.53-11.16,4.71,6.66,8.53,12.07,15.45,21.86-18.09-2.56-28.35-8.52-38-15.2-23.44-16.2-46.65-32.75-69.72-49.47-11.51-8.34-23.83-14-41.48-17.29,23.36,31.73,46.26,58.21,75.13,79.12,14.57,10.55,28.5,22.03,43.53,31.86,17.5,11.45,35.17,23.1,54.07,31.84,23.6,10.9,48.69,18.52,72.86,28.25,39.61,15.94,78.62,33.49,121.46,39.6,44.22,6.3,88.27,13.54,129.54,31.79,5.58,2.47,13.48,6,14.8,10.61,3.53,12.33,12.67,13.41,22.27,15.34,21.26,4.27,42.43,9.02,63.75,12.93,23.51,4.31,47.08,10.61,70.76,11.27,62.56,1.75,123.77-9.28,183.48-27.33,24.98-7.55,51.18-15.29,72.43-29.51,15.66-10.48,31.51-15.78,48.44-20.53,21.62-6.07,43.51-11.17,65.23-16.91,6.85-1.81,13.52-4.32,20.28-6.51-27.33-.42-54.08-8.8-80.67-.05-7.44,2.45-16.12,4.01-22.75-8.58Zm861.25-1756.75c-1.53,.17-3.06,.34-4.58,.52,0,27.67-1.48,55.44,.32,83,3.36,51.55,8.74,102.97,13.03,154.46,3.3,39.56,5.66,79.21,9.45,118.72,3.85,40.16,9.07,80.19,13.43,120.31,2.02,18.63,2.92,37.39,5.2,55.98,7.02,57.2,14.66,114.33,21.66,171.54,5.45,44.51,10.38,89.08,15.43,133.64,2.02,17.85,3.42,35.77,5.65,53.6,6.48,51.87,13.31,103.7,19.83,155.57,2.34,18.66,5.68,21.93,28.13,24.6,1.11-3.1,3.41-6.47,3.32-9.79-.48-19.39-1.09-38.8-2.46-58.15-1.59-22.39-4.15-44.72-6.06-67.09-3.7-43.26-5.71-86.73-11.18-129.76-10.96-86.12-24.17-171.95-35.72-258-12.45-92.82-23.48-185.84-36.2-278.62-12.37-90.28-26.1-180.37-39.23-270.54ZM704.46,855.32c-10.76,26.36-4.04,47.84-3.88,69.23,.8,107.93-.08,215.79,8.36,323.63,6.37,81.39,6.52,163.25,10.7,244.83,2.03,39.66,6.78,79.19,10.74,118.73,.55,5.48,2.14,12.75,5.94,15.62,7.95,6.01,8.2,13.55,8.75,21.83,4.65,70.28,9.26,140.57,14.22,210.83,1.12,15.88,3.56,31.67,5.48,48.24,19.89-7.82,27.94-19.56,26.07-39.09-2.06-21.6-1.51-43.43-2.92-65.11-3.75-57.61-6.95-115.28-12.23-172.75-5.82-63.42-15.14-126.53-20.35-189.99-7.24-88.15-9.59-176.68-22.03-264.42-1.88-13.27-.42-27-1.79-40.38-2.29-22.27-6.36-44.37-8.41-66.66-6.4-69.79-12.19-139.63-18.66-214.54Zm145.58,1002.21c-.94-8.31-1.57-14.18-2.27-20.05-2.17-18.08-10.87-36.9,6.38-52.75,1.27-1.16,1.15-4.27,1.03-6.44-1.07-19.46-1.02-39.08-3.67-58.32-13.29-96.52-26.36-193.1-41.47-289.34-7.44-47.39-14.59-94.58-16.66-142.6-1.32-30.65-5.23-61.23-8.98-91.73-8.13-66.17-17.24-132.23-25.3-198.41-6.25-51.31-11.27-102.77-17.3-154.12-2.88-24.53-7.78-48.84-10.09-73.4-3.72-39.55-6.06-79.24-8.98-118.87-3.6,12.18-3.07,24.08-2.16,35.96,3.67,47.75,7.7,95.48,11.12,143.25,2.83,39.6,4.72,79.27,7.52,118.88,3.17,44.82,6.83,89.62,10.42,134.41,3.82,47.79,6.81,95.68,11.99,143.33,5.33,49.02,17.29,97.16,17.74,146.93,.27,29.91,4.27,59.77,6.29,89.67,5.01,74.03,9.73,148.09,14.95,222.11,.39,5.52,2.14,13.26,6,15.77,10.29,6.7,8.97,16.42,9.94,25.85,2.84,27.58,5.55,55.17,8.47,82.75,1.8,16.93,3.9,33.83,6.03,52.1,7.31-1.92,12.15-3.19,19.02-4.99ZM2901.12,687.98c-1.91,.31-3.82,.61-5.72,.92,2.01,19.23,3.71,38.49,6.07,57.67,10.08,81.78,20.12,163.57,30.68,245.29,4.41,34.16,10.25,68.14,15.15,102.24,9.7,67.43,19.13,134.9,28.82,202.34,9.69,67.42,20.88,134.65,29.02,202.25,9.32,77.36,15.96,155.05,23.9,232.58,.99,9.68,2.25,19.43,4.61,28.84,1.03,4.09,5.16,7.4,7.88,11.07,4.21-10.05,5.12-18.82,4.04-27.34-3.19-25.23-7.51-50.33-10.76-75.56-4.02-31.22-7.57-62.5-11.01-93.79-4.99-45.39-8.74-90.94-14.75-136.19-14.01-105.47-29.92-210.69-43.43-316.21-13.5-105.54-24.77-211.36-37.53-317-4.83-39.96-13.77-79.1-26.98-117.1ZM55.09,523.82c9.58,5.77,13.98,9.97,19.1,11.27,47.01,11.94,93.82,24.83,143.27,21.57,22.57-1.49,42.11-8.71,59.64-22.64,24.05-19.11,61.72-75,78.25-117.15-17.4,3.74-29.06,15.58-41.84,25.58-23.69,18.55-48.86,35.03-78.65,41.13-29.18,5.98-58.82,10.13-88.43,13.54-30.01,3.46-58.29,11.55-91.35,26.69ZM496.76,105c-64.47,58.82-123.37,206.74-104.04,261.61,47.41-34.45,80.95-79.72,108.26-130.05,3.73-6.88,5.26-16.04,4.74-23.94-2.35-35.51-5.8-70.94-8.96-107.63Zm-173.3,301.94c-.5-1.69-1-3.38-1.5-5.08-7.48,2.66-15.03,5.15-22.43,8.02-37.86,14.72-76.44,24.87-117.67,24.77-14.41-.03-29.85,4.15-43.03,10.27-21.55,10.01-41.88,22.77-62.17,35.28-5.88,3.63-9.85,10.36-16.56,17.71,5.58,0,7.95,.61,9.83-.09,31.79-11.78,64.52-18.4,98.45-19.71,61.57-2.37,109.64-34.04,155.08-71.18Zm1931.93,104.12c115.41,21.75,240.33-31.14,323.33-97.84-30.89,10.43-61.29,22.19-91.68,33.99-15.9,6.17-31.39,13.89-47.77,18.28-33.18,8.9-66.91,15.77-100.3,23.95-27.95,6.85-55.73,14.39-83.58,21.62ZM363,300.61c1.92,.19,3.85,.38,5.77,.56,1.51-4.74,3.9-9.39,4.38-14.23,4.61-45.8,22.6-86.85,46.35-125.27,13.7-22.16,31.07-42.03,46.62-63.06,6.16-8.33,14.76-15.59,15.84-31.37-9.2,6.9-15.32,11-20.89,15.76-15.88,13.58-31.23,27.8-47.35,41.08-17.12,14.1-29.52,30.97-38.69,51.41-11.43,25.49-12.22,52.12-13.2,78.91-.56,15.37,.72,30.81,1.17,46.22Zm2890.88,295.49c.99-.52,1.97-1.05,2.96-1.57-1.72-4.58-3.14-9.3-5.21-13.72-11.06-23.62-23.58-46.64-33.19-70.83-22.82-57.46-23.56-116.94-12.87-177.06,.91-5.13,2.61-10.32,2.29-15.38-.19-2.98-3.14-7.35-5.77-8.17-2.72-.85-8.3,.86-9.55,3.15-3.54,6.43-7.23,13.6-7.77,20.72-2.09,27.61-5.42,55.47-3.67,82.95,2.04,31.94,8.63,63.61,13.95,95.28,1.07,6.4,3.64,15.47,8.3,17.82,14.92,7.54,18.69,22.7,27.33,34.44,7.87,10.69,15.48,21.57,23.2,32.37Zm-589.75-191.28c-35.62,4.81-63.99,23.39-92.27,41.06-42.55,26.59-84.28,54.26-132.18,70.72-11.81,4.06-23.47,8.54-35.19,12.83,22.34-.83,43.74-4.14,65.26-6.35,36.34-3.75,66.9-20.34,95.1-42.04,20.73-15.96,40.62-33.01,61.27-49.07,12.28-9.55,25.32-18.13,38.01-27.14Zm494.41-62.6c2.44-7.21,5.12-15.14,8.47-25.06-7.44,.61-11.93,.43-16.14,1.42-50.16,11.74-100.4,23.15-150.32,35.84-14.33,3.64-27.9,10.66-41.38,17.05-7.03,3.33-14.65,7.51-14.35,19.83,19.56,2.77,33.69-10.71,50.25-14.32,17.51-3.81,35.32-6.28,52.8-10.21,18.2-4.09,36.06-9.7,54.25-13.79,17.47-3.93,35.19-6.76,56.41-10.75Zm-1024.12,158.32l1.69,5.87c92.86-6.32,182.5-26.5,267.82-65.18-5.98-.64-11.43,.94-16.98,2.09-16.74,3.49-33.38,7.81-50.3,9.92-17.05,2.13-34.37,2.58-51.59,2.7-16.08,.12-30.75,4.13-45.54,10.27-17.15,7.12-35.13,12.25-52.84,17.98-17.37,5.62-34.84,10.9-52.27,16.33Zm854.24-99.24c-.13,1.8-.25,3.61-.38,5.41,11.09,2.4,22.15,6.67,33.28,6.85,33.55,.55,67.3,1.46,100.64-1.5,29.72-2.63,38.26-14.11,30.12-47.74-54.53,12.32-109.1,24.64-163.66,36.97Zm-226.57-29.5c-33.31,19.38-110.14,80.25-118.56,93.82,23.89-3.19,47.69-5.57,71.17-9.72,29.48-5.21,55.94-51.49,47.39-84.1Zm157.58,103.86c54.86,20.73,110.28,24.43,170.23,23.25-11.91-5.3-20.47-9.82-29.51-12.99-18.33-6.41-36.98-11.92-55.38-18.15-7.74-2.62-15.13-8.62-22.76-8.76-19.1-.34-34.57-8-47.83-20.18-6.23,2.79-10.85,4.87-16.31,7.32,.51,9.53,.97,18.35,1.56,29.51Zm121.82-37.31c-.32,2.27-.63,4.53-.95,6.8,39.76,19.11,78.38,41.11,124.84,47.53-4.18-19.29-8.21-37.91-11.76-54.33h-112.13ZM1728.61,1643.42c7.8-3.85,10.85-5.24,13.8-6.83,21.38-11.53,34.08-31.6,46.76-50.75,23.2-35.03,55.05-65.27,63.03-109.21,.76-4.17,3.88-7.94,6.02-11.84,6.13-11.14,12.61-22.11,18.34-33.46,1.94-3.84,2.05-8.61,3-12.96-1.53-.61-3.06-1.22-4.58-1.83-22.1,37.97-45.27,75.37-65.99,114.08-21.14,39.5-54.64,69.98-80.39,112.79ZM2888.08,437.87c-2.02-39.8-4-78.75-5.99-118.02-22.33,7.74-23.09,7.78-22.21,27.33,1.44,31.75,3.99,63.44,6.15,96.46,8.72-2.28,14.99-3.92,22.04-5.77Zm353.26,75.28c-2.66-18.23-6.45-36.39-7.72-54.72-2.2-31.88-2.77-63.88-4.17-95.82-.29-6.63,3.24-14.64-5.63-19.3-18.06,59.25-15.92,116.02,17.51,169.84Zm-318.69-131.29c28.92-17.87,56.83-35.13,84.74-52.38-.63-1.78-1.27-3.56-1.9-5.34-25.62,3.96-51.23,7.92-76.35,11.8-3.4,16.85-13.31,29.68-6.49,45.92Zm-90.69-72.46c-12.02,.63-10.8,8.52-10.03,17.16,4.4,49.1,8.02,98.28,12.83,147.34,2.46,25.12,6.86,50.04,10.39,75.06,1.32-.14,2.64-.29,3.96-.43-5.69-79.39-11.39-158.77-17.15-239.13ZM697.96,574.89c20.83-1.39,23.59-4.18,22.82-19.67-1.11-22.22-2.31-44.45-2.54-66.69-.11-10.76-3.9-16.5-15.74-17.87-1.51,34.76-2.98,68.56-4.54,104.23Zm1895.23,1660.96c-45.37,22.67-92.5,41.72-135.08,75.6,50.46-10.74,112.52-44.84,135.08-75.6Zm-1399.01-261.56c-10.7,25.38,2.22,44,11.42,63.09,1.78,3.69,7.31,5.58,11.11,8.3,1.62-4.36,5.09-8.99,4.51-13.03-1.71-11.74-5.94-23.12-7.49-34.87-1.56-11.86-7.98-18.3-19.54-23.5Zm236.43-1444.78c43.92,5.14,53.89-.51,70.37-37.05-7.59,.67-15.16-.83-19.93,2.16-17.32,10.82-33.7,23.14-50.44,34.9Zm-752.34,40.3c1.21-.27,2.42-.55,3.63-.82,.69-7.41,1.71-14.81,2.02-22.23,.97-23.11,2.04-46.23,2.12-69.34,.01-3.8-4.28-10.29-7.47-10.9-7.53-1.45-9.93,4.74-9.93,11.44,0,2.97,.58,5.94,.78,8.92,1.67,24.4,8.43,48.37,6,73.15-.31,3.14,1.84,6.52,2.85,9.79Zm1321.49-85.99c-21.76-2.22-67.8,16.04-96.46,38.69,15.95-1.66,28.29-.47,38.47-4.59,15.55-6.31,29.66-16.21,44.28-24.76,4.18-2.44,8.04-5.45,13.71-9.34Zm-980.35,48.19c22.24-4.09,50.43,11.62,67.21-20.7-24.76,4.54-49.99-2.96-67.21,20.7Zm777.78-24.84c37.75,13.45,59.14,8.89,71.76-11.32-23.92,3.77-47.84,7.55-71.76,11.32Zm-73.24-22.79c-25.15-3.47-44.46-.89-56.21,23.55,21.55-.88,39.87-5.63,56.21-23.55Zm-86.39,3.63c-25.4-4.12-40.37,8.57-57.31,21.86q27,4.51,57.31-21.86Zm-324.67,30.7c-25.1-5.36-31.38-2.7-45.33,17.1,17.47-6.59,31.4-11.85,45.33-17.1Zm-136.89,6.81c.08-2.12,.16-4.23,.24-6.35-12.61,1.71-25.22,3.42-37.83,5.13,12.87,3.61,25.76,9.53,37.59,1.21Zm37.84,3.14c13.9,2.97,22.45,.16,27.9-12.46-11.12-.05-20.75-.05-27.9,12.46Zm32.62,1423.92c-10.19-4.47-20.38-8.94-32.99-14.47,6.68,18.5,20.04,15.51,32.99,14.47Zm-237.47,12.92c3.21-10.19,.45-15.88-10.55-18.7-.46,8.81-2.36,16.93,10.55,18.7ZM3148.23,298.64c-.47-1.99-.94-3.98-1.41-5.97l-32.78,7.47c.25,1.34,.51,2.68,.76,4.03,11.14-1.84,22.28-3.68,33.43-5.52ZM875.52,1946.05c.7-1.39,1.39-2.78,2.09-4.17-6.85-4.28-13.71-8.55-20.56-12.83-.84,1.43-1.67,2.85-2.51,4.28l20.98,12.72Zm189.48,56.95c1.89,.17,3.77,.33,5.66,.5-1.86-8.52-3.72-17.03-5.58-25.55-1.68,.33-3.36,.67-5.04,1,1.65,8.02,3.31,16.03,4.96,24.05ZM613.2,509.88c-1.07,.91-2.19,1.52-2.11,1.85,.79,3.38,1.61,6.77,2.79,10.03,.4,1.1,1.86,1.82,2.83,2.72,.32-3.6,1.11-7.25,.74-10.79-.15-1.43-2.81-2.6-4.25-3.82Zm1455.56-27.75c-.3-1.25-.61-2.5-.91-3.75l-19.62,3.99c.26,1.5,.52,2.99,.78,4.49,4-.74,8.03-1.36,11.99-2.28,2.64-.61,5.18-1.63,7.76-2.46Zm-358.08,1175.02c7.48-3.63,11.56-5.62,15.65-7.6-1.17-1.16-2.34-2.33-3.51-3.49-3.04,2.78-6.09,5.56-12.14,11.09Z"
     id="path1"
     style="fill:#000000" />
  <path
     d="M2779.6,3195.69c16.53,36.82,33.93,78.62,59.33,116.36,15.03,22.33,36.96,31.22,63.81,27.56,7.63-1.04,15.3-1.74,24.79,2.04-3.74,2.81-7.1,6.6-11.3,8.25-26.16,10.33-53.48,10.71-80.5,5.77-28.56-5.22-49.66-21.99-61.5-48.79-9.16-20.74-17.12-42.01-25.61-63.05-4.08-10.1-8.2-20.17-12.21-30.29-4.91-12.42-13.49-18.38-27.31-17.68-14.32,.73-28.71,.16-45.58,.16-.72,12.94-1.68,22.64-1.74,32.34-.18,34.52,.26,69.04-.15,103.56-.28,24.16-17.86,35.71-40.06,25.71-5.39-2.43-9.81-10.11-11.75-16.29-2.09-6.65-.89-14.38-.89-21.65-.03-99.93-.02-199.86-.02-299.79,0-5.45,.21-10.9,.07-16.35-.35-13.4,5.6-20.31,19.47-20.11,36.32,.54,72.64,.83,108.96,1.35,3.6,.05,7.22,.83,10.79,1.48,51.3,9.3,75.5,33.46,79.51,85.24,1.72,22.16,.51,46.4-7,66.89-7,19.1-24.14,34.48-41.11,57.26Zm-116.41-182.87c-2.26,52.83-2.2,102.98-.26,153.89,28.37,5.09,53.35,3.53,77.84-3.99,13.82-4.24,23.12-13.99,27.18-28.1,8.21-28.53,8.78-56.98,.14-85.7-6.22-20.68-20.64-32.93-40.52-35.52-20.22-2.63-41.04-.58-64.38-.58Z"
     id="path2"
     style="fill:#000000" />
  <path
     d="M850.75,3263.13c-.54,8.57,.41,14-1.37,18.3-9.57,23.06-23.63,42.74-44.75,56.91-79.72,53.47-185.57,20.43-218.17-69.56-23.63-65.23-25.11-131.75-.67-197.27,19.25-51.59,55.45-84.41,111.82-91.06,35.67-4.21,70.89-2.65,103.49,14.61,9.51,5.03,18.66,11.38,26.56,18.66,14.38,13.24,14.58,18.29,3.41,35.02-6.43,9.63-13.74,18.67-23.57,31.91-6.62-10.71-11.22-17.84-15.52-25.16-17.45-29.66-41.86-46.08-77.72-45.51-29.81,.47-50.69,15.14-64.36,38.82-10.23,17.71-17.91,37.9-22,57.95-10.3,50.54-9.99,101.3,9.92,149.94,30.12,73.56,118.04,91.78,176.55,37.04,7.25-6.79,13.08-15.09,20.29-21.94,3.42-3.25,8.53-4.72,16.09-8.67Z"
     id="path3"
     style="fill:#000000" />
  <path
     d="M1959.27,3086.42h44.06c3.24,8.94,6.11,16.89,10,27.61,8.78-6.67,15.71-12.06,22.78-17.28,52.91-39.08,121.2-12.36,132.9,52.06,1.13,6.22,1.82,12.61,1.84,18.92,.15,55.37,.32,110.74-.01,166.1-.14,22.62-5.3,26.94-27.48,25.92-18.38-.85-22.9-5.11-23.14-25.72-.47-40.84-.11-81.69-.14-122.53-.01-18.15,.6-36.34-.38-54.45-2.12-39.27-31.9-56.83-66.38-38.1-27.59,14.98-46.38,36.23-45.31,71.28,1.44,47.16,.54,94.39,.3,141.59-.13,25.21-18.76,37.04-41.25,25.96-3.96-1.95-7.12-7.88-8.3-12.57-1.51-6.01-.76-12.62-.76-18.96-.03-70.8-.06-141.6,.03-212.39,0-8.02,.71-16.03,1.25-27.44Z"
     id="path4"
     style="fill:#000000" />
  <path
     d="M2515.17,3281.34c-3.13,8.73-5.1,18.11-9.57,26.1-27.18,48.54-70.79,64.64-123.82,61.31-50.55-3.17-88.1-31.62-102.21-79.71-8.72-29.74-11.86-60.49-7.39-91.56,1.03-7.18,2.44-14.29,3.64-21.44,16.78-99.29,119.14-113.46,179.2-81.78,38.43,20.27,60.88,70.69,53.04,118.54-8,.58-16.69,1.72-25.39,1.75-44.44,.17-88.89-.13-133.33,.11-27.56,.15-29.9,2.82-26.42,30.06,1.25,9.81,3.27,19.74,6.58,29.03,16.77,47.04,58.69,67.91,106.53,53.45,21.34-6.45,39.15-18.57,54.57-34.5,5.31-5.49,10.99-10.62,16.49-15.92,2.69,1.52,5.38,3.05,8.07,4.57Zm-188.66-95.61c26.11,6.61,108.84,5.92,128.86-.71,6.19-41.86-15.88-71.07-55.79-76.17-39.97-5.11-76.79,35.86-73.07,76.88Z"
     id="path5"
     style="fill:#000000" />
  <path
     d="M2952.82,3087.85c9.87-1.34,15.98-2.81,22.11-2.88,23.95-.25,26.9,2.39,27.01,25.9,.24,52.68-.37,105.38,.38,158.05,.19,13.35,2.12,27.42,6.81,39.8,12.09,31.94,50.29,37.09,72.33,10.63,11.57-13.89,15.86-30.31,15.85-48.13-.04-50.87,0-101.74,0-152.61,0-9.7,0-19.41,0-31.48,12.15-.91,20.94-2.45,29.63-2.03,17.11,.81,21.26,4.38,21.34,21.22,.39,77.21,.22,154.42,.05,231.63-.03,11.3-2.36,21.99-14.98,26.33-12.76,4.39-26.16-.13-35.47-11.69-2.12-2.63-4.28-5.24-7.54-9.22-23.46,20.01-50.05,21.32-77.65,16.42-33.07-5.87-53.36-26.53-58.07-59.68-1.53-10.74-1.72-21.72-1.76-32.6-.17-49.96-.06-99.92-.06-149.88,0-8.98,0-17.95,0-29.8Z"
     id="path6"
     style="fill:#000000" />
  <path
     d="M940.25,3223.43c3.88-20.04,6.22-41.78,12.46-62.35,15.52-51.22,55.89-81.15,109.33-81.9,66.26-.94,113.76,30.14,128.26,97.32,11.12,51.49,9.89,101.3-23.22,145.43-32.07,42.74-77.48,52.38-126.63,43.83-47-8.17-77.56-37.84-89.8-84.33-4.79-18.22-6.76-37.18-10.4-58Zm206.02,6.03c-4.67-27.25-6.71-52.79-13.74-76.88-9.67-33.14-31.17-49.08-60.19-50.31-33.32-1.41-55.09,12.27-68.15,47.29-18.75,50.26-18.49,101.41-.37,152,10.21,28.51,31.69,45.59,61.51,45.58,30.31-.01,55.14-15.17,65.1-45,7.92-23.72,10.89-49.08,15.84-72.67Z"
     id="path7"
     style="fill:#000000" />
  <path
     d="M1602.35,3222.79c5.24-23.63,7.8-48.28,16.25-70.7,21.94-58.24,72.23-79.13,128.81-71.67,63.27,8.33,96.97,43.83,107.32,108.1,5.88,36.51,5.69,72.61-9.58,106.72-20.04,44.77-62.4,79.72-133.18,72.05-51.4-5.58-91.46-42.03-101.89-94.99-3.13-15.89-3.55-32.32-5.21-48.5-.84-.33-1.68-.66-2.53-.99Zm48.31,1.29c4.87,25.45,7.62,49.86,14.46,73.07,9.17,31.1,32.84,48.97,60.92,50.4,27.37,1.4,54.7-14.9,66.3-43.79,21.61-53.83,19.69-108.56-1.99-161.82-11.29-27.74-33.86-41.53-64.92-39.8-30.26,1.68-49.48,18.91-58.2,45.64-8.06,24.67-11.26,50.93-16.56,76.3Z"
     id="path8"
     style="fill:#000000" />
  <path
     d="M1475.1,3162.24c-7.76-11.87-12.44-19.28-17.36-26.52-30.82-45.32-85.04-42.34-108.08,7.47-22.05,47.67-21.46,97.04,.25,144.97,13.66,30.16,37.95,45,72.04,42.78,26.19-1.71,49.63-9.67,69.98-26.46,6.64-5.48,13.65-10.51,20.39-15.68,9.63,11.07,2.27,17.56-1.77,23.85-29.37,45.71-72.54,60.88-124.49,54.02-46.35-6.12-74.73-34.27-88.91-77.55-13.61-41.53-15.16-84.13-3.95-126.07,15.57-58.24,64.79-90.61,125.93-84.98,23.65,2.18,46.58,7.42,66.13,22.34,18.78,14.33,19.83,18.39,7.64,37.76-4.21,6.69-9.39,12.77-17.8,24.06Z"
     id="path9"
     style="fill:#000000" />
  <path
     d="M576.99,3336.05c-13.21,11.94-23.16,20.92-35.67,32.23-54.85-55.85-108.58-110.56-165.11-168.12,11.55-11.75,21.73-22.11,34.76-35.37,56.97,57.89,113.65,110.81,166.03,171.26Z"
     id="path10"
     style="fill:#000000" />
  <path
     d="M3253.92,3327.77c.17-16.75,12.9-29.74,28.6-29.19,14.29,.5,26.25,13.34,26.63,28.58,.4,16.21-12.31,30.37-27.44,30.56-15.6,.2-27.95-13.13-27.79-29.95Z"
     id="path11"
     style="fill:#000000" />
  <path
     class="cls-1"
     d="M2601.09,1808.75c-3.48-4.49-5.91-7.29-7.97-10.35-8.89-13.17-22.71-16.94-33.17-6.9-13.74,13.18-25.83,28.06-39.28,42.92-3.34-5.13-6.75-13.19-12.59-18.69-11.65-10.97-24.67-20.47-37.03-30.69-6.06-5.01-12.65-9.63-17.72-15.53-15.13-17.59-28.87-36.44-44.65-53.41-10.83-11.65-15.36-10.66-32.31,.17-30.18-17.63-61.93-34.2-91.53-53.98-36.53-24.42-76.13-38.12-119.34-42.89-5.18-.57-11.18-.23-15.32-2.75-28.6-17.34-60.33-15.48-91.77-16.44-13.26-.4-26.46-2.67-39.7-4.01-11.13-1.13-22.27-2.61-33.43-2.97-4.13-.13-10.93,1.36-12.1,4.04-6.03,13.81-15.87,13.45-27.76,10-3.37-.98-7.46-.18-11.08,.52-36.22,6.91-72.3,15.8-103.84,34.96-30.6,18.6-62.93,25.79-101.32,27.23,4.76-5.86,7.32-9.72,10.56-12.88,21.44-20.9,43.41-41.28,64.47-62.55,21.79-22.01,37.53-47.9,49.61-76.63,13.02-30.95,28.91-60.69,43.08-91.17,8.84-19.01,16.6-38.53,25.23-57.64,6.45-14.29,14.49-27.93,20.04-42.53,4.47-11.74,8.39-24.41,8.83-36.8,.94-26.72-7-51.93-19.68-75.31-7.87-14.51-12.86-15.66-29.26-10.69-5,1.52-10.7,1.56-15.1,4.03-8.33,4.67-19.24,8.79-23.34,16.29-37.09,67.72-82.32,130.03-125.99,193.4-6.36,9.23-10.63,20.03-17.58,28.73-16.68,20.87-34.3,41-51.8,61.2-1.64,1.89-5.14,2.17-12.29,4.96,3.3-11.49,4.97-19.74,8.02-27.45,8.2-20.76,18.29-40.86,25.28-62,13.91-42.11,19.35-85.99,25.18-129.84,4.12-30.94,11.75-61.41,18.63-96.22-1.97-5.03-10-6.52-18.56-5.35-32.93,4.49-61.97,16.28-83.41,43.45-15.48,19.62-29.32,40.11-35.92,64.32-3.7,13.56-4.07,27.98-6.82,41.84-15.96,80.54-46.82,154.31-97.2,219.91-25.94,33.78-48.86,69.88-73.45,104.71-5.57,7.89-11.54,15.93-18.86,22.08-24.65,20.73-51.33,39.22-74.67,61.28-20.53,19.4-38.57,41.71-55.65,64.29-4.97,6.58-5.13,18.92-3.53,27.91,3.7,20.7-4.53,34.22-20.33,46.12-18.37,13.84-36.77,27.98-53.07,44.11-9.25,9.15-14.56,22.4-21.22,34.05-10.43,18.22-11.18,19.64-31.52,13.11-19.84-6.37-39.09-14.79-58.19-23.22-22.57-9.97-44.65-21.02-67.03-31.41-32.57-15.13-65.24-30.06-97.84-45.12-12.43-5.75-19.85-15.03-22.03-28.98-4.4-28.13-9.67-56.12-14.24-84.22-6.5-39.95-13.11-79.88-18.92-119.93-11.17-77.15-23.48-154.2-32.1-231.64-6.13-55.01-15.94-109.59-17.14-165.32-.76-34.98-9.26-69.74-13.27-104.72-8.62-75.2-17.07-150.43-24.67-225.75-8.06-79.82-15.11-159.75-22.46-239.64-2.2-23.88-3.73-47.83-5.99-71.71-.9-9.51-2.96-18.9-4.65-29.33,41.54-9.74,81.82-18.01,124.49-8.73,19.95,4.34,41.7,2.83,62.35,.91,20.15-1.88,40.03-.93,60.08-1.03,47.12-.22,94.24-2.56,141.35-4.04,.75-.02,1.5-.08,2.25-.1,86.83-2.94,173.65-6.77,260.5-8.53,68.98-1.39,138.03,.93,207.01-.64,41.86-.95,83.62-6.22,125.43-9.43,5.94-.46,11.94-.39,17.91-.32,53.25,.69,106.5,1.37,159.75,2.2,28.73,.45,56.7-4.18,84.48-11.09,10.84-2.7,22.1-4.71,33.23-5.09,34.49-1.17,69.04-2.59,103.49-1.51,17.62,.55,35.03,6.5,52.61,9.56,24.95,4.35,49.86,9.33,75,12,13.99,1.49,28.59-.06,42.62-2.17,27.93-4.19,55.16-2.75,82.01,6,19.18,6.25,38.12,4.97,57.61,.22,17.41-4.24,35.37-6.65,53.22-8.56,24.61-2.62,46.66-11.18,65.87-26.41,14.46-11.47,29.57-16.87,47.92-11.39,9.98,2.98,20.66,3.86,30.41,7.38,34.35,12.42,65.57-.6,97.63-10.07,27.68-8.17,55.55-17.27,88-13.46,3.31,27.24,6.72,53.7,9.67,80.22,1.57,14.14,2.32,28.36,3.49,42.55,.37,4.48-.49,9.77,1.58,13.3,13.68,23.33,9.15,49.55,11.83,74.38,16.15,149.82,24.53,300.37,44.76,449.87,9.94,73.44,18.02,147.37,18.47,221.88,.19,31.35,5.95,62.64,8.23,94.02,5.81,79.89,23.56,158.79,19.72,239.47-.32,6.74,.1,13.51-.3,20.24-1.89,31.54-12.95,43.3-44.28,52.02-20.85,5.8-40.81,14.7-61.44,21.36-9.9,3.2-20.45,4.39-30.69,6.58-28.36,6.08-57.14,10.71-84.9,18.84-19.85,5.82-33.09-1.39-46.08-13.92-4.78-4.61-9.32-9.75-14.86-13.23-7.03-4.42-13.88-6.21-22.7-.38-7.57,5.01-18.05,5.62-27.02,8.12Z"
     id="path12"
     style="fill:none" />
  <path
     class="cls-1"
     d="M2146.06,2111.83c-.97-15.98-3.17-30.89-2.32-45.62,.56-9.65,.42-21.57,13.54-26.09,2.5-.86,3.75-5.74,5.31-8.9,2.83-5.77,4.33-12.65,8.42-17.26,7.13-8.02,7.51-15.58,2.14-25.63-26.95,6.23-46.49,23.99-60.91,44.86-7.91,11.46-27.77,19.15-19.64,40.37,7.49,1.16,15.73,2.43,24.01,3.72-12.54,16.44-25.31,31.94-36.55,48.48-5.24,7.71-10.81,10.49-18.53,6.68-16.55-8.17-33.03-6.17-51.56-.08-.82-16.83-17.73-11.49-26.65-20.8-34.94,30.53-69.72,61.98-111.57,87.48,.3,3.34-.55,8.97,1.44,13.28,7.55,16.37,2.64,30.38-6.62,43.93-11.41,16.7-22.35,33.75-34.51,49.87-5.26,6.97-12.15,14.19-19.92,17.5-20.49,8.73-41.46,16.99-63,22.43-22.43,5.66-26.19,2.26-38.24-21.71-7.51,19.51-22.02,13.54-36.81,11.62-1.96-8.26-3.81-16.07-5.83-24.6-3.06,2.39-5.64,4.4-8.45,6.59-16.04-14.3-19.36-32-16.78-52.49,5.07-40.27,21.77-76.24,40.63-111.21,5.03-9.33,14.37-17.87,23.78-23.02,31.34-17.15,63.51-32.83,95.6-48.58,10.84-5.32,26.51-1.9,31.44-19.31-1.7-4.14-3.91-9.5-6.11-14.88-13.49,5.74-31.39-.03-41.07,15.72-.38,.62-.94,1.41-1.56,1.58-28.77,7.77-46.33,35.3-77.28,41.46-15.99,3.18-30.4,18.16-43.64,29.93-8.8,7.82-16.7,12.37-28.86,13.85-46.57,5.66-92.73-.64-139.08-1.48-25.74-.47-48.53-7.18-70.52-18.82-7.57-4.01-14.31-9.61-22.46-15.19,11.87-11.39,29.29-14.68,31.06-35.72-8.34,3.32-14.41,5.3-20.07,8.09-11.68,5.76-23.26,9.37-36.7,5.99-6.25-1.58-13.45-.67-20.01,.41-28.78,4.75-56.76,.04-84.48-6.9-5.43-1.36-11.75-4.58-14.85-8.94-19.55-27.52-30.45-57.86-27.51-94.22,5.06,.79,9.17,2.27,13.09,1.88,12.43-1.24,25.13-1.98,37.05-5.32,6.59-1.84,13.97-7.43,16.92-13.36,1.96-3.94-4.31-11.33-5.12-17.4-2.31-17.43-7.15-33.61-20.76-47.4,8.48-12.1,15.78-24.34,24.91-35,7.65-8.93,8.46-15.67,1.55-25.64-12.13-17.51-11.87-20.56,3.75-33.73,26.87-22.66,54.61-44.28,82.01-66.31,2.32-1.87,5.3-3.12,7.13-5.36,15.63-19.07,30.51-38.79,46.72-57.35,14.72-16.86,31.44-31.98,46.12-48.87,9.68-11.15,18.54-23.4,25.61-36.34,13.93-25.48,26.45-51.73,39.38-77.75,20.66-41.58,41.5-83.07,61.62-124.91,12.26-25.49,14.52-53.59,15.92-81.09,1.88-36.9,19.96-63.87,47.06-85.77,8.11-6.55,19.79-8.67,34.97-14.95-3.82,11.31-5.5,17.33-7.85,23.08-17.21,42.17-24.82,86.61-26.37,131.56-1.27,36.89-14.85,69.85-24.68,104.23-10.89,38.06-36.74,66.55-59.71,96.81-21.62,28.5-43.88,56.65-67.74,83.26-11.22,12.51-26.35,21.84-40.63,31.21-18.43,12.1-25.08,32.13-40.38,51.57,21.44-6.96,38.43-11.96,55.04-18,21.46-7.81,34.49-26.14,48.47-42.43,22.86-26.63,43.19-55.46,66.35-81.81,15.74-17.91,32.9-35.45,52.28-49.1,32.66-23.01,57.46-52.25,78.7-85.28,17.01-26.45,33.75-53.09,51.13-79.29,9.91-14.94,21.61-28.72,31.21-43.85,14.39-22.67,27.72-46.01,41.32-69.17,4.54-7.74,7.9-16.22,12.93-23.6,6.03-8.85,13.93-16.69,25.9-14.02,12.22,2.73,17.98,11.53,20.4,23.96,6.14,31.68-.5,61.07-14.51,89.2-4.32,8.67-9.94,16.8-15.75,24.59-20.61,27.64-42.95,54.1-62.01,82.75-20.71,31.14-37.78,64.68-57.77,96.34-19.17,30.36-39.67,59.91-60.33,89.3-11.14,15.85-23.93,30.53-35.79,45.89-11.38,14.75-17.38,31.38-16.38,50.2,.2,3.72,.02,7.97,1.77,10.94,1.6,2.72,5.64,5.62,8.48,5.5,2.24-.1,5.6-4.44,6.11-7.3,.73-4.17-.67-8.72-1.22-13.64,17.97-12.94,35.53-13.95,54.92-4.26,23.28,11.62,40.41,30.29,58.62,47.85,14.18,13.67,29.32,25.04,54,23.44-4.9-7.36-8.13-12.22-12.22-18.38,6.91-2.21,12.94-4.13,23.41-7.48-13.83-5.89-24.16-10.29-37.45-15.94,17.56-9.23-2.13-32.67,21.02-38.01-2.66-5.52-4.46-9.24-6.04-12.52,15.97-13.85,46.09-2.98,55.39-31.09,10.29-5.19,22.04-11.12,33.8-17.01,1.33-.67,2.85-1.64,4.19-1.51,19.54,1.87,34.99-10.4,52.63-15.05,13.12-3.46,26.16-7.69,38.89,1.37,1.7,1.21,4.8,2.5,6.19,1.76,15.13-8.04,26.6,2.34,39.92,6.14,13.94,3.98,29.43,3.23,44.24,3.2,9.79-.02,18.81-2.16,25.74,8.32,2.6,3.93,10.24,5.41,15.86,6.3,19.24,3.06,38.64,5.12,57.9,8.07,6.6,1.01,15.31,1.46,19,5.7,11.03,12.67,26.31,13.87,40.19,19.73,36.09,15.24,65.48,40.32,93.54,70.92,1.65-3.07,4.09-7.61,6.47-12.04,42.4,22.46,79.22,47.5,108.58,82.31,3.81,4.51,6.21,10.22,9.16,15.44q8.99,15.89,28.64,19.05c4.65,29.68,9.07,61.2,52.04,70-6.75-11.72-11.4-19.79-16.04-27.85-13.08-22.74-6.73-58.37,15.35-72.14,11.63-7.25,26.87-8.42,39.85-13.85,27.7-11.58,47.06,4.47,66.13,19.63,10.93,8.69,11.71,19.56,5.4,32.16-5.02,10.01-9.98,20.17-16.25,29.39-3.63,5.34-9.18,10.18-14.95,13.15-30.56,15.71-61.44,30.8-92.26,45.99-6.7,3.3-13.64,6.09-20.43,9.21-20.37,9.36-40.36,19.63-61.13,27.98-40.24,16.18-80.41,32.77-121.51,46.52-62.51,20.93-125.77,39.62-188.73,59.17-4.87,1.51-9.96,2.32-16.23,3.74Zm-541.69-171.83c.59-2.24,1.17-4.47,1.76-6.71-7.49-3.94-14.63-8.97-22.57-11.52-8.44-2.72-17.59-3.53-26.51-4.39-9.63-.92-19.47-2.05-29.01-1.04-12.21,1.3-20.48,9.55-20.31,17.58,.18,8.36,8,14.36,21.95,14.31,18.7-.06,37.42-1.17,56.06-2.68,6.32-.51,12.42-3.63,18.62-5.56Z"
     id="path13"
     style="fill:none" />
  <path
     class="cls-1"
     d="M2009.1,2427.51c6.63,12.59,15.31,11.02,22.75,8.58,26.59-8.75,53.35-.37,80.67,.05-6.75,2.19-13.42,4.7-20.28,6.51-21.72,5.74-43.61,10.84-65.23,16.91-16.92,4.75-32.78,10.06-48.44,20.53-21.25,14.22-47.45,21.96-72.43,29.51-59.71,18.05-120.92,29.08-183.48,27.33-23.68-.66-47.25-6.96-70.76-11.27-21.32-3.91-42.49-8.65-63.75-12.93-9.6-1.93-18.74-3.01-22.27-15.34-1.32-4.62-9.21-8.15-14.8-10.61-41.27-18.25-85.32-25.48-129.54-31.79-42.84-6.11-81.85-23.65-121.46-39.6-24.17-9.73-49.26-17.35-72.86-28.25-18.9-8.73-36.57-20.39-54.07-31.84-15.03-9.83-28.96-21.31-43.53-31.86-28.88-20.91-51.77-47.39-75.13-79.12,17.65,3.29,29.97,8.95,41.48,17.29,23.07,16.72,46.28,33.26,69.72,49.47,9.65,6.67,19.91,12.64,38,15.2-6.92-9.79-10.74-15.2-15.45-21.86,24.01-1.09,44.33,17.7,69.53,11.16-1.94-2.87-2.7-5.32-4.3-6.16-23.18-12.04-46.71-23.43-69.68-35.86-26.22-14.19-54.2-25.81-74.59-49.05-3.91-4.45-9.49-7.38-13.75-11.57-27.64-27.15-63.61-32.04-99.32-35.21-15.39-1.37-25.38-5.03-35.42-17.58-43.54-54.42-88.65-107.6-133.06-161.32-7.16-8.66-14.39-17.41-20.32-26.91-3.92-6.28-5.57-13.98-5.13-22.39,20.31,16.05,40.56,32.15,61.05,47.96,1.07,.83,4.08-.86,7.6-1.72-.43-6.21-.84-12.27-1.46-21.32,30.37,21.08,62.06,34.87,79.6,69.4,18.2,35.82,38.84,71.15,69.16,99.04,5.4,4.97,10.82,10.78,17.36,13.5,28.26,11.73,56.89,22.58,85.49,33.48,8.78,3.34,17.9,5.79,26.86,8.65,.69-1.32,1.38-2.65,2.07-3.97-8.6-7.62-17.21-15.24-26.16-23.17,7.92-6.71,15.21-6.1,23.13-1.87,10.57,5.65,21.32,10.99,32.18,16.07,7.45,3.49,14.52,10.1,23.32,.44,2.11-2.32,10.67,1.23,21.36,2.85-7.38-5.97-10.71-9.41-14.68-11.76-38.69-22.83-77.53-45.4-116.22-68.23-9.68-5.71-19.31-11.61-28.35-18.26-34.87-25.65-68.9-52.49-104.46-77.14-17.62-12.22-37.8-20.77-56.96-30.72-10.12-5.25-14.38-12.43-9.32-24.86,7.15,2.72,14.57,4.44,20.86,8.11,34.91,20.37,69.65,41.03,104.2,62,11.67,7.08,22.05,13.7,36.7,17.15,28.7,6.74,56.9,19.05,82.78,33.57,42.43,23.8,84.06,48.85,128.45,69.1,16.18,7.38,31.68,17.25,45.64,28.33,26.38,20.94,55.43,30.29,89.12,31.77,36.11,1.58,71.74,1.96,111.4-5.77-11.69-3.94-19.67-6.62-27.65-9.31,44.56,2.2,90.72-9.62,134.85,17.15-15.74,17.62-35.63,23.5-55.26,31.58,1.71,1.99,3.37,3.92,5.28,6.15-8.64,14.65-20.52,15.61-36.75,13-59.16-9.51-118.59-17.48-178.03-25.06-31.87-4.07-64.04-5.77-95.96-9.45-8.72-1.01-17.01-5.5-25.59-8.1-7.49-2.27-15.11-4.12-22.68-6.15-.93,1.5-1.85,3-2.78,4.5,2.94,3.2,5.31,8.09,8.92,9.31,18.4,6.21,36.76,13.79,55.78,16.69,97.77,14.9,195.74,28.48,293.63,42.65,8.87,1.28,17.62,3.47,27.24,8.07-22.68,6.7-45.35,13.4-68.03,20.1,24.95,4.74,47.53,19.13,73.72,14.3,27.35-5.05,48.62,4.03,62.75,28.38,4.41,7.59,10.17,10.13,18.79,7.34,13.38-4.33,26.58,1.14,39.64,1.4,32.89,.65,66.13,7.24,98.56-8.81,33.93-16.8,69.82-29.71,105.13-43.6,11.07-4.35,23.05-6.37,37.03-10.11-20.04-9.69-42.37,4.68-63.18-12.68,23.34-3.36,43.15-5.63,62.71-9.21,16.86-3.09,33.71-6.81,50.02-12,7.87-2.5,14.48-9.01,21.66-13.71-.55-1.41-1.09-2.82-1.64-4.24-22.38,1.49-44.76,2.99-67.14,4.48-.35-1.47-.7-2.94-1.06-4.41,35.63-21.18,78.68-25.66,118.87-47.57-12.87-7.2-21.26-3.64-29.08-1.31-30.84,9.22-61.49,19.09-92.32,28.35-9.66,2.9-19.67,4.62-31.6,7.36,12.87-27.05,42.42-21.18,60.9-38.31-5.64-2.51-9.38-4.18-13.21-5.89,.62-.5,1.47-1.8,2.32-1.79,14.98,.08,29.95,.54,44.93,.45,11.14-.07,22.48,.38,33.39-1.43,51.72-8.62,103.3-18.07,154.98-26.9,13.25-2.26,26.85-2.59,40.01-5.21,8.6-1.72,17.06-5.25,24.96-9.21,32.76-16.46,65.5-33,97.79-50.37,11.05-5.95,21.57-13.51,30.91-21.9,24.7-22.19,55.95-31.11,85.43-43.5,12.34-5.18,25.74-7.84,38.65-11.66,2.15-.64,4.55-2.36,6.37-1.86,19.81,5.39,34.69-6.41,49.61-15.29,47.54-28.26,93.45-59.38,141.81-86.09,55.69-30.76,113.3-58.04,170.15-86.69,1.72-.87,4.18-.28,7.36-.42-1.65,2.57-2.36,4.66-3.81,5.81-64.52,51.22-129.13,102.4-199.9,144.88-29.5,17.71-60.81,32.36-90.82,49.25-22.84,12.86-46.35,25.19-67.05,41.04-43.98,33.66-93.51,56.39-143.47,78.79-35.56,15.94-70.44,33.42-106.22,48.83-21.83,9.4-34.66,27.84-49.77,44.13-2.41,2.6-2.07,7.73,.23,14.21,7.79-6,15.5-12.09,23.38-17.97,30.46-22.7,67-33.1,100.66-49.3,33.75-16.24,69.17-29.13,102.44-46.25,38.57-19.85,78.17-39.29,112.55-65.24,32.87-24.82,68.66-43.62,102.96-65.43,72.66-46.21,145.75-92.22,208.5-152.35,20.5-19.65,43.51-36.69,65.49-54.78,13-10.7,27.45-14.3,47.12-6.96-13.04,13.01-23.59,26.44-36.86,36.13-22.5,16.43-41.85,36.02-62.5,54.39-40.26,35.81-82.43,69.72-125.86,101.63-34.97,25.7-72.45,48.14-109.71,70.54-92.21,55.44-175.13,123.67-261,187.86-10.21,7.63-20.67,14.94-30.69,22.81-5.01,3.93-9.29,8.78-13.99,13.3,8.84,12.39,17.56,7.84,24.93,3.13,18.93-12.11,37.72-24.51,55.81-37.82,33.84-24.88,66.33-51.66,100.85-75.53,64.11-44.35,128.58-88.26,194.17-130.37,85.04-54.61,161.89-118.74,232.07-191.2,4.63-4.78,10.06-8.8,17.41-15.16-.87,4.63-.62,6.82-1.6,7.99-22.43,27.06-44.22,54.72-67.85,80.7-13.49,14.83-30,26.91-45.21,40.16-6.75,5.88-14.5,10.86-20.33,17.52-32.84,37.48-72.06,67.61-111.2,97.89-5.93,4.59-12.05,9.13-17.09,14.61-29.94,32.5-66.59,55.44-105.35,75.69-19.26,10.06-38.32,20.68-56.6,32.39-88.7,56.84-184.94,98.71-279.46,144.34-53.29,25.73-109.77,33.83-165.75,46.7-31.39,7.22-62.65,14.99-93.89,22.8-5.65,1.41-10.96,4.21-18.56,7.2Zm140.59-150.86c-.6-1.06-1.19-2.11-1.79-3.17-6.78,2.68-14.33,4.23-20.23,8.22-39.42,26.69-83.44,43.85-126.84,62.38-44.11,18.84-87.83,38.6-131.98,57.35-18.04,7.66-25.54,25.35-38.53,37.75-.76,.73,.79,3.89,1.55,7.13,16.91,.92,30.05-8.17,43.9-14.83,26.94-12.95,53.56-26.62,80.79-38.92,49.85-22.51,100.15-44.01,149.99-66.55,7.85-3.55,15.58-9.22,21.01-15.84,8.44-10.3,14.85-22.27,22.12-33.53Zm-697.53,125.47c-.21,.9-.43,1.81-.64,2.71,9.12,1.84,18.31,3.4,27.35,5.57,26.86,6.45,53.66,13.19,80.5,19.72,6.48,1.58,13,3.75,19.57,4.04,47.87,2.1,95.75,3.95,143.65,5.47,9.67,.31,19.55-.27,29.02-2.07,3.98-.76,7.14-5.78,10.67-8.86-3.82-2.75-7.37-7.3-11.52-7.95-23.65-3.69-47.37-7.67-71.22-9.28-56.01-3.8-112.09-6.59-168.17-9.21-19.69-.92-39.47-.15-59.21-.15Z"
     id="path14"
     style="fill:none" />
  <path
     class="cls-1"
     d="M2870.35,670.76c13.13,90.17,26.86,180.26,39.23,270.54,12.72,92.78,23.75,185.8,36.2,278.62,11.54,86.05,24.76,171.88,35.72,258,5.47,43.03,7.48,86.5,11.18,129.76,1.91,22.37,4.47,44.7,6.06,67.09,1.38,19.35,1.99,38.75,2.46,58.15,.08,3.31-2.21,6.69-3.32,9.79-22.45-2.67-25.78-5.95-28.13-24.6-6.52-51.87-13.35-103.7-19.83-155.57-2.23-17.82-3.62-35.75-5.65-53.6-5.05-44.56-9.97-89.13-15.43-133.64-7.01-57.21-14.65-114.33-21.66-171.54-2.28-18.59-3.18-37.35-5.2-55.98-4.36-40.12-9.58-80.14-13.43-120.31-3.79-39.51-6.15-79.16-9.45-118.72-4.29-51.49-9.68-102.91-13.03-154.46-1.79-27.56-.32-55.33-.32-83,1.53-.17,3.06-.34,4.58-.52Z"
     id="path15"
     style="fill:none" />
  <path
     class="cls-1"
     d="M704.46,855.32c6.47,74.91,12.27,144.75,18.66,214.54,2.04,22.29,6.11,44.38,8.41,66.66,1.38,13.38-.09,27.1,1.79,40.38,12.44,87.74,14.79,176.28,22.03,264.42,5.21,63.46,14.53,126.57,20.35,189.99,5.28,57.48,8.48,115.15,12.23,172.75,1.41,21.68,.86,43.51,2.92,65.11,1.87,19.53-6.19,31.27-26.07,39.09-1.92-16.57-4.36-32.36-5.48-48.24-4.96-70.26-9.58-140.55-14.22-210.83-.55-8.28-.8-15.82-8.75-21.83-3.8-2.88-5.39-10.14-5.94-15.62-3.97-39.54-8.71-79.07-10.74-118.73-4.18-81.59-4.33-163.44-10.7-244.83-8.44-107.84-7.56-215.7-8.36-323.63-.16-21.4-6.88-42.88,3.88-69.23Z"
     id="path16"
     style="fill:none" />
  <path
     class="cls-1"
     d="M850.04,1857.53c-6.87,1.8-11.7,3.07-19.02,4.99-2.12-18.27-4.23-35.17-6.03-52.1-2.93-27.57-5.63-55.17-8.47-82.75-.97-9.43,.35-19.15-9.94-25.85-3.85-2.51-5.61-10.25-6-15.77-5.21-74.02-9.94-148.07-14.95-222.11-2.02-29.9-6.02-59.76-6.29-89.67-.45-49.77-12.41-97.91-17.74-146.93-5.18-47.65-8.17-95.54-11.99-143.33-3.58-44.79-7.24-89.59-10.42-134.41-2.8-39.6-4.69-79.27-7.52-118.88-3.42-47.77-7.45-95.5-11.12-143.25-.91-11.87-1.44-23.78,2.16-35.96,2.92,39.63,5.26,79.31,8.98,118.87,2.31,24.57,7.21,48.88,10.09,73.4,6.03,51.34,11.06,102.8,17.3,154.12,8.06,66.18,17.17,132.23,25.3,198.41,3.75,30.49,7.65,61.07,8.98,91.73,2.07,48.02,9.22,95.21,16.66,142.6,15.12,96.25,28.18,192.82,41.47,289.34,2.65,19.25,2.6,38.87,3.67,58.32,.12,2.17,.24,5.27-1.03,6.44-17.25,15.85-8.56,34.67-6.38,52.75,.71,5.87,1.33,11.75,2.27,20.05Z"
     id="path17"
     style="fill:none" />
  <path
     class="cls-1"
     d="M2901.12,687.98c13.2,38,22.15,77.13,26.98,117.1,12.76,105.64,24.03,211.46,37.53,317,13.5,105.53,29.42,210.75,43.43,316.21,6.01,45.25,9.75,90.8,14.75,136.19,3.44,31.29,7,62.57,11.01,93.79,3.25,25.23,7.56,50.32,10.76,75.56,1.08,8.52,.17,17.3-4.04,27.34-2.72-3.67-6.86-6.98-7.88-11.07-2.36-9.41-3.61-19.16-4.61-28.84-7.95-77.53-14.58-155.22-23.9-232.58-8.14-67.6-19.33-134.83-29.02-202.25-9.69-67.43-19.12-134.9-28.82-202.34-4.91-34.1-10.74-68.07-15.15-102.24-10.56-81.72-20.6-163.51-30.68-245.29-2.36-19.18-4.07-38.45-6.07-57.67,1.91-.31,3.82-.61,5.72-.92Z"
     id="path18"
     style="fill:none" />
  <path
     class="cls-1"
     d="M55.09,523.82c33.06-15.14,61.35-23.23,91.35-26.69,29.61-3.41,59.25-7.56,88.43-13.54,29.79-6.11,54.96-22.58,78.65-41.13,12.77-10,24.44-21.85,41.84-25.58-16.53,42.15-54.2,98.04-78.25,117.15-17.54,13.93-37.07,21.16-59.64,22.64-49.45,3.26-96.26-9.64-143.27-21.57-5.13-1.3-9.52-5.49-19.1-11.27Z"
     id="path19"
     style="fill:none" />
  <path
     class="cls-1"
     d="M496.76,105c3.16,36.69,6.62,72.12,8.96,107.63,.52,7.9-1.01,17.06-4.74,23.94-27.31,50.33-60.85,95.6-108.26,130.05-19.33-54.87,39.57-202.79,104.04-261.61Z"
     id="path20"
     style="fill:none" />
  <path
     class="cls-1"
     d="M323.46,406.95c-45.43,37.13-93.5,68.81-155.08,71.18-33.93,1.31-66.67,7.93-98.45,19.71-1.88,.7-4.24,.09-9.83,.09,6.71-7.35,10.67-14.08,16.56-17.71,20.29-12.51,40.62-25.27,62.17-35.28,13.18-6.12,28.62-10.31,43.03-10.27,41.24,.1,79.81-10.05,117.67-24.77,7.4-2.88,14.95-5.36,22.43-8.02,.5,1.69,1,3.38,1.5,5.08Z"
     id="path21"
     style="fill:none" />
  <path
     class="cls-1"
     d="M2255.39,511.07c27.85-7.23,55.63-14.77,83.58-21.62,33.39-8.19,67.11-15.05,100.3-23.95,16.38-4.39,31.87-12.11,47.77-18.28,30.39-11.8,60.79-23.56,91.68-33.99-83,66.71-207.92,119.6-323.33,97.84Z"
     id="path22"
     style="fill:none" />
  <path
     class="cls-1"
     d="M363,300.61c-.45-15.41-1.73-30.85-1.17-46.22,.98-26.78,1.76-53.42,13.2-78.91,9.17-20.44,21.57-37.3,38.69-51.41,16.12-13.28,31.47-27.49,47.35-41.08,5.56-4.76,11.69-8.86,20.89-15.76-1.07,15.79-9.68,23.04-15.84,31.37-15.55,21.03-32.92,40.9-46.62,63.06-23.75,38.42-41.74,79.47-46.35,125.27-.49,4.84-2.88,9.49-4.38,14.23-1.92-.19-3.85-.38-5.77-.56Z"
     id="path23"
     style="fill:none" />
  <path
     class="cls-1"
     d="M3253.87,596.09c-7.72-10.8-15.33-21.68-23.2-32.37-8.64-11.74-12.41-26.9-27.33-34.44-4.65-2.35-7.22-11.42-8.3-17.82-5.31-31.67-11.91-63.35-13.95-95.28-1.75-27.47,1.58-55.34,3.67-82.95,.54-7.11,4.23-14.28,7.77-20.72,1.25-2.28,6.83-4,9.55-3.15,2.62,.82,5.58,5.19,5.77,8.17,.32,5.06-1.38,10.26-2.29,15.38-10.69,60.11-9.94,119.59,12.87,177.06,9.6,24.19,22.13,47.21,33.19,70.83,2.07,4.42,3.49,9.14,5.21,13.72-.99,.52-1.97,1.05-2.96,1.57Z"
     id="path24"
     style="fill:none" />
  <path
     class="cls-1"
     d="M2664.12,404.81c-12.7,9.01-25.73,17.59-38.01,27.14-20.65,16.06-40.54,33.11-61.27,49.07-28.2,21.7-58.75,38.29-95.1,42.04-21.51,2.22-42.92,5.52-65.26,6.35,11.73-4.29,23.39-8.77,35.19-12.83,47.9-16.45,89.62-44.13,132.18-70.72,28.28-17.67,56.65-36.25,92.27-41.06Z"
     id="path25"
     style="fill:none" />
  <path
     class="cls-1"
     d="M3158.53,342.21c-21.22,3.99-38.94,6.82-56.41,10.75-18.2,4.09-36.06,9.7-54.25,13.79-17.48,3.93-35.29,6.4-52.8,10.21-16.56,3.61-30.69,17.09-50.25,14.32-.31-12.32,7.31-16.5,14.35-19.83,13.48-6.39,27.06-13.4,41.38-17.05,49.92-12.69,100.16-24.1,150.32-35.84,4.21-.99,8.7-.8,16.14-1.42-3.35,9.92-6.03,17.85-8.47,25.06Z"
     id="path26"
     style="fill:none" />
  <path
     class="cls-1"
     d="M2134.41,500.53c17.43-5.43,34.91-10.71,52.27-16.33,17.71-5.73,35.69-10.86,52.84-17.98,14.78-6.14,29.46-10.15,45.54-10.27,17.21-.13,34.54-.57,51.59-2.7,16.92-2.11,33.56-6.44,50.3-9.92,5.54-1.16,11-2.73,16.98-2.09-85.32,38.68-174.96,58.86-267.82,65.18l-1.69-5.87Z"
     id="path27"
     style="fill:none" />
  <path
     class="cls-1"
     d="M2988.65,401.29c54.56-12.33,109.13-24.65,163.66-36.97,8.13,33.63-.4,45.1-30.12,47.74-33.34,2.95-67.09,2.05-100.64,1.5-11.13-.18-22.19-4.45-33.28-6.85,.13-1.8,.25-3.61,.38-5.41Z"
     id="path28"
     style="fill:none" />
  <path
     class="cls-1"
     d="M2762.08,371.79c8.55,32.61-17.91,78.89-47.39,84.1-23.48,4.15-47.28,6.52-71.17,9.72,8.42-13.56,85.25-74.43,118.56-93.82Z"
     id="path29"
     style="fill:none" />
  <path
     class="cls-1"
     d="M2919.67,475.65c-.59-11.16-1.06-19.98-1.56-29.51,5.46-2.45,10.08-4.52,16.31-7.32,13.26,12.18,28.73,19.83,47.83,20.18,7.63,.14,15.02,6.14,22.76,8.76,18.4,6.23,37.05,11.74,55.38,18.15,9.04,3.16,17.61,7.69,29.51,12.99-59.95,1.18-115.36-2.51-170.23-23.25Z"
     id="path30"
     style="fill:none" />
  <path
     class="cls-1"
     d="M3041.49,438.34h112.13c3.55,16.42,7.58,35.04,11.76,54.33-46.47-6.42-85.08-28.43-124.84-47.53,.32-2.27,.63-4.53,.95-6.8Z"
     id="path31"
     style="fill:none" />
  <path
     class="cls-1"
     d="M1728.61,1643.42c25.75-42.82,59.25-73.29,80.39-112.79,20.72-38.71,43.89-76.11,65.99-114.08,1.53,.61,3.06,1.22,4.58,1.83-.95,4.35-1.05,9.11-3,12.96-5.73,11.35-12.21,22.31-18.34,33.46-2.14,3.89-5.27,7.66-6.02,11.84-7.98,43.95-39.83,74.18-63.03,109.21-12.68,19.15-25.38,39.21-46.76,50.75-2.95,1.59-6.01,2.98-13.8,6.83Z"
     id="path32"
     style="fill:none" />
  <path
     class="cls-1"
     d="M2888.08,437.87c-7.06,1.85-13.32,3.48-22.04,5.77-2.16-33.01-4.71-64.71-6.15-96.46-.88-19.55-.12-19.58,22.21-27.33,1.99,39.26,3.97,78.22,5.99,118.02Z"
     id="path33"
     style="fill:none" />
  <path
     class="cls-1"
     d="M3241.35,513.15c-33.43-53.82-35.58-110.59-17.51-169.84,8.87,4.66,5.34,12.67,5.63,19.3,1.39,31.94,1.97,63.94,4.17,95.82,1.26,18.33,5.06,36.49,7.72,54.72Z"
     id="path34"
     style="fill:none" />
  <path
     class="cls-1"
     d="M2922.66,381.85c-6.81-16.24,3.09-29.07,6.49-45.92,25.11-3.88,50.73-7.84,76.35-11.8,.63,1.78,1.27,3.56,1.9,5.34-27.91,17.25-55.82,34.5-84.74,52.38Z"
     id="path35"
     inkscape:label="path35"
     style="fill:none" />
  <path
     class="cls-1"
     d="M2831.97,309.4c5.76,80.35,11.46,159.74,17.15,239.13-1.32,.14-2.64,.29-3.96,.43-3.52-25.01-7.92-49.94-10.39-75.06-4.81-49.06-8.42-98.24-12.83-147.34-.77-8.64-1.99-16.53,10.03-17.16Z"
     id="path36"
     style="fill:none" />
  <path
     class="cls-1"
     d="M697.96,574.89c1.55-35.67,3.02-69.46,4.54-104.23,11.84,1.37,15.63,7.11,15.74,17.87,.23,22.24,1.43,44.47,2.54,66.69,.77,15.5-1.99,18.28-22.82,19.67Z"
     id="path37"
     style="fill:none" />
  <path
     class="cls-1"
     d="M2593.2,2235.86c-22.56,30.76-84.63,64.87-135.08,75.6,42.58-33.88,89.72-52.93,135.08-75.6Z"
     id="path38"
     style="fill:none" />
  <path
     class="cls-1"
     d="M1194.18,1974.3c11.55,5.2,17.97,11.64,19.54,23.5,1.55,11.75,5.78,23.13,7.49,34.87,.59,4.04-2.89,8.67-4.51,13.03-3.8-2.72-9.33-4.61-11.11-8.3-9.19-19.09-22.11-37.71-11.42-63.09Z"
     id="path39"
     style="fill:none" />
  <path
     class="cls-1"
     d="M1430.61,529.52c16.74-11.76,33.12-24.08,50.44-34.9,4.77-2.98,12.35-1.48,19.93-2.16-16.48,36.55-26.45,42.19-70.37,37.05Z"
     id="path40"
     style="fill:none" />
  <path
     class="cls-1"
     d="M678.27,569.82c-1.01-3.27-3.16-6.65-2.85-9.79,2.43-24.78-4.33-48.75-6-73.15-.2-2.98-.78-5.95-.78-8.92,0-6.69,2.4-12.89,9.93-11.44,3.19,.62,7.48,7.1,7.47,10.9-.08,23.12-1.15,46.23-2.12,69.34-.31,7.43-1.33,14.82-2.02,22.23-1.21,.27-2.42,.55-3.63,.82Z"
     id="path41"
     style="fill:none" />
  <path
     class="cls-1"
     d="M1999.77,483.83c-5.67,3.89-9.52,6.9-13.71,9.34-14.62,8.54-28.73,18.45-44.28,24.76-10.18,4.13-22.52,2.93-38.47,4.59,28.66-22.65,74.69-40.9,96.46-38.69Z"
     id="path42"
     style="fill:none" />
  <path
     class="cls-1"
     d="M1019.42,532.02c17.22-23.66,42.45-16.16,67.21-20.7-16.78,32.32-44.97,16.61-67.21,20.7Z"
     id="path43"
     style="fill:none" />
  <path
     class="cls-1"
     d="M1797.19,507.18c23.92-3.77,47.84-7.55,71.77-11.34-12.63,20.22-34.02,24.79-71.77,11.34Z"
     id="path44"
     style="fill:none" />
  <path
     class="cls-1"
     d="M1723.95,484.38c-16.33,17.92-34.66,22.67-56.21,23.55,11.74-24.44,31.05-27.02,56.21-23.55Z"
     id="path45"
     style="fill:none" />
  <path
     class="cls-1"
     d="M1637.57,488.01q-30.31,26.37-57.31,21.86c16.94-13.29,31.91-25.98,57.31-21.86Z"
     id="path46"
     style="fill:none" />
  <path
     class="cls-1"
     d="M525.91,487.34c20.16,5.28,41.08,8.16,62.2,17.9-17.27,5.46-46.09-3.93-61.73-18.42l-.47,.52Z"
     id="path47"
     style="fill:none" />
  <path
     class="cls-1"
     d="M1312.9,518.72c-13.93,5.26-27.86,10.51-45.33,17.1,13.95-19.8,20.23-22.46,45.33-17.1Z"
     id="path48"
     style="fill:none" />
  <path
     class="cls-1"
     d="M1176.01,525.52c-11.83,8.32-24.71,2.4-37.59-1.21,12.61-1.71,25.22-3.42,37.83-5.13-.08,2.12-.16,4.23-.24,6.35Z"
     id="path49"
     style="fill:none" />
  <path
     class="cls-1"
     d="M1213.85,528.66c7.15-12.51,16.78-12.51,27.9-12.46-5.45,12.62-14.01,15.44-27.9,12.46Z"
     id="path50"
     style="fill:none" />
  <path
     class="cls-1"
     d="M1246.47,1952.58c-12.95,1.04-26.31,4.02-32.99-14.47,12.61,5.53,22.8,10,32.99,14.47Z"
     id="path51"
     style="fill:none" />
  <path
     class="cls-1"
     d="M1009.01,1965.5c-12.91-1.77-11.01-9.89-10.55-18.7,10.99,2.83,13.76,8.52,10.55,18.7Z"
     id="path52"
     style="fill:none" />
  <path
     class="cls-1"
     d="M3148.23,298.64c-11.14,1.84-22.28,3.68-33.43,5.52-.25-1.34-.51-2.68-.76-4.03l32.78-7.47c.47,1.99,.94,3.98,1.41,5.97Z"
     id="path53"
     style="fill:none" />
  <path
     class="cls-1"
     d="M875.52,1946.05l-20.98-12.72c.84-1.43,1.67-2.85,2.51-4.28,6.85,4.28,13.71,8.55,20.56,12.83-.7,1.39-1.39,2.78-2.09,4.17Z"
     id="path54"
     style="fill:none" />
  <path
     class="cls-1"
     d="M1065,2003c-1.65-8.02-3.31-16.03-4.96-24.05,1.68-.33,3.36-.67,5.04-1,1.86,8.52,3.72,17.03,5.58,25.55-1.89-.17-3.77-.33-5.66-.5Z"
     id="path55"
     style="fill:none" />
  <path
     class="cls-1"
     d="M613.2,509.88c1.44,1.22,4.1,2.39,4.25,3.82,.37,3.53-.42,7.18-.74,10.79-.97-.9-2.43-1.62-2.83-2.72-1.18-3.25-2-6.65-2.79-10.03-.08-.33,1.04-.94,2.11-1.85Z"
     id="path56"
     style="fill:none" />
  <path
     class="cls-1"
     d="M2068.77,482.13c-2.58,.83-5.12,1.85-7.76,2.46-3.96,.91-7.99,1.53-11.99,2.28-.26-1.5-.52-2.99-.78-4.49l19.62-3.99c.3,1.25,.61,2.5,.91,3.75Z"
     id="path57"
     style="fill:none" />
  <path
     class="cls-1"
     d="M1710.69,1657.15c6.06-5.53,9.1-8.31,12.14-11.09,1.17,1.16,2.34,2.33,3.51,3.49-4.08,1.98-8.17,3.97-15.65,7.6Z"
     id="path58"
     style="fill:none" />
  <path
     class="cls-1"
     d="M526.39,486.82c-6.28-.68-12.56-1.35-18.83-2.03,.38-1.58,.76-3.17,1.13-4.75,5.71,2.47,11.42,4.94,17.18,7.36,.05-.05,.52-.58,.52-.58Z"
     id="path59"
     style="fill:none" />
  <path
     class="cls-1"
     d="M2663.2,3012.82c23.34,0,44.17-2.05,64.38,.58,19.87,2.59,34.3,14.84,40.52,35.52,8.64,28.72,8.07,57.17-.14,85.7-4.06,14.11-13.37,23.86-27.18,28.1-24.49,7.52-49.47,9.09-77.84,3.99-1.94-50.92-1.99-101.06,.26-153.89Z"
     id="path60"
     style="fill:none" />
  <path
     class="cls-1"
     d="M2326.51,3185.73c-3.72-41.02,33.1-81.99,73.07-76.88,39.91,5.1,61.98,34.31,55.79,76.17-20.02,6.63-102.75,7.32-128.86,.71Z"
     id="path61"
     style="fill:none" />
  <path
     class="cls-1"
     d="M1146.27,3229.46c-4.95,23.59-7.93,48.96-15.84,72.67-9.96,29.83-34.79,44.99-65.1,45-29.82,.01-51.3-17.07-61.51-45.58-18.12-50.58-18.38-101.74,.37-152,13.07-35.02,34.84-48.7,68.15-47.29,29.02,1.22,50.51,17.16,60.19,50.31,7.03,24.09,9.07,49.63,13.74,76.88Z"
     id="path62"
     style="fill:none" />
  <path
     class="cls-1"
     d="M1650.67,3224.09c5.3-25.37,8.5-51.63,16.56-76.3,8.73-26.73,27.95-43.96,58.2-45.64,31.07-1.73,53.63,12.07,64.92,39.8,21.68,53.26,23.6,107.99,1.99,161.82-11.6,28.89-38.92,45.19-66.3,43.79-28.08-1.44-51.76-19.31-60.92-50.4-6.84-23.21-9.59-47.63-14.46-73.07Z"
     id="path63"
     style="fill:none;fill-opacity:1" />
  <path
     d="M1604.37,1940c-6.2,1.93-12.31,5.04-18.62,5.56-18.64,1.51-37.37,2.62-56.06,2.68-13.95,.05-21.77-5.95-21.95-14.31-.18-8.04,8.09-16.29,20.31-17.58,9.53-1.01,19.37,.12,29.01,1.04,8.92,.85,18.07,1.67,26.51,4.39,7.94,2.56,15.08,7.58,22.57,11.52-.59,2.24-1.17,4.47-1.76,6.71Z"
     id="path64"
     style="fill:#000000;fill-opacity:1" />
  <path
     d="M2149.68,2276.65c-7.27,11.26-13.68,23.23-22.12,33.53-5.42,6.62-13.16,12.29-21.01,15.84-49.84,22.54-100.14,44.04-149.99,66.55-27.23,12.3-53.85,25.97-80.79,38.92-13.86,6.66-27,15.75-43.9,14.83-.76-3.24-2.32-6.4-1.55-7.13,13-12.4,20.49-30.09,38.53-37.75,44.15-18.75,87.87-38.51,131.98-57.35,43.4-18.54,87.41-35.69,126.84-62.38,5.9-3.99,13.45-5.54,20.23-8.22,.6,1.06,1.19,2.11,1.79,3.17Z"
     id="path65"
     style="fill:#000000;fill-opacity:1" />
  <path
     d="M1452.15,2402.13c19.74,0,39.51-.77,59.21,.15,56.08,2.62,112.16,5.41,168.17,9.21,23.85,1.62,47.57,5.59,71.22,9.28,4.15,.65,7.7,5.2,11.52,7.95-3.53,3.08-6.7,8.1-10.67,8.86-9.47,1.81-19.35,2.38-29.02,2.07-47.89-1.53-95.78-3.37-143.65-5.47-6.57-.29-13.09-2.46-19.57-4.04-26.84-6.53-53.64-13.27-80.5-19.72-9.04-2.17-18.23-3.73-27.35-5.57,.21-.9,.43-1.81,.64-2.71Z"
     id="path66"
     style="fill:#000000;fill-opacity:1" />
</svg>
