<?xml version="1.0" encoding="UTF-8" standalone="no"?>
<!-- Created with Inkscape (http://www.inkscape.org/) -->

<svg
   width="624.65741mm"
   height="162.92038mm"
   viewBox="0 0 624.65741 162.92038"
   version="1.1"
   id="svg1"
   xmlns="http://www.w3.org/2000/svg"
   xmlns:svg="http://www.w3.org/2000/svg">
  <defs
     id="defs1" />
  <g
     id="layer1"
     transform="translate(201.08333,-64.029155)">
    <g
       id="g14"
       style="fill:#000000"
       transform="matrix(0.26458333,0,0,0.26458333,-411.3186,-634.82484)">
      <g
         id="g9"
         style="fill:#000000">
        <path
           class="cls-2"
           d="m 1112.97,2943.9 c -39.2,1.23 -69.45,-13.15 -91.1,-43.56 -19.42,-26.71 -29.5,-62.47 -29.87,-106.85 -0.75,-43.97 8.59,-79.32 27.63,-106.44 20.54,-29.59 50.4,-44.8 89.23,-45.62 39.95,-1.23 70.94,9.86 92.97,33.7 2.24,2.06 3.36,4.52 3.36,6.99 0,2.47 -1.12,5.34 -3.36,8.63 l -19.79,27.53 c -2.24,3.29 -4.11,3.29 -5.6,-0.41 -8.21,-17.67 -16.05,-29.59 -23.52,-36.58 -11.95,-10.68 -26.88,-16.44 -45.18,-16.44 -27.26,0.41 -47.42,14.79 -60.49,43.97 -10.08,22.19 -14.93,50.14 -14.56,83.43 0.37,32.46 6.35,59.59 17.92,81.37 14.19,27.13 34.72,41.1 61.98,41.51 20.54,0 38.08,-3.29 51.9,-9.86 15.31,-6.99 28.75,-19.32 40.7,-36.99 2.24,-2.88 4.85,-3.7 7.47,-2.06 3.36,1.65 4.11,4.52 2.61,7.81 -17.17,44.8 -51.15,68.22 -102.3,69.87 z"
           id="path1"
           style="fill:#000000" />
        <path
           class="cls-2"
           d="m 1458.36,2918.01 c -18.67,20.55 -42.94,30.83 -73.55,30.83 -30.61,0 -53.39,-10.28 -71.31,-30.41 -17.55,-20.14 -26.51,-46.85 -26.51,-80.14 -0.37,-35.34 7.84,-63.29 24.27,-84.25 17.55,-22.19 42.19,-33.29 73.55,-32.88 32.86,0.41 57.87,10.69 75.42,31.23 17.17,20.55 26.14,48.91 26.14,85.07 0,33.7 -9.33,60.41 -28,80.55 z m -72.43,-180.42 c -22.4,-0.41 -39.2,10.69 -49.66,33.29 -7.84,17.26 -11.57,39.87 -11.57,66.99 0.75,63.29 20.54,94.94 59.74,94.53 41.07,-0.82 61.23,-32.06 61.23,-93.7 0,-66.99 -19.79,-100.69 -59.74,-101.1 z"
           id="path2"
           style="fill:#000000" />
        <path
           class="cls-2"
           d="m 1655.16,2948.84 c -31.36,0 -55.63,-10.28 -72.43,-32.06 -15.68,-19.73 -23.52,-47.26 -24.27,-82.6 -0.75,-34.11 6.72,-61.65 22.78,-81.79 16.05,-20.55 39.58,-31.23 70.57,-32.06 31.36,-0.82 56.38,8.63 75.05,28.36 2.61,2.88 2.61,5.75 0,8.63 l -14.93,23.01 c -1.12,2.06 -2.99,2.88 -5.23,2.88 -2.99,0 -4.85,-1.65 -5.97,-4.52 -4.11,-11.51 -10.45,-20.96 -19.04,-28.35 -8.59,-6.99 -18.29,-10.69 -28.75,-10.69 -20.91,0 -36.22,10.69 -45.92,31.65 -8.21,16.85 -11.95,37.4 -11.2,62.06 0.75,23.84 5.6,43.15 14.56,58.36 10.83,18.49 26.14,27.95 45.92,28.36 31.36,0.82 57.5,-10.27 78.03,-33.29 2.61,-2.46 4.85,-2.88 6.72,-1.23 1.87,2.06 2.24,4.11 0.75,6.99 -18.67,36.99 -47.79,55.48 -86.62,56.31 z"
           id="path3"
           style="fill:#000000" />
        <path
           class="cls-2"
           d="m 1981.51,2918.01 c -18.67,20.55 -42.94,30.83 -73.55,30.83 -30.61,0 -53.39,-10.28 -71.31,-30.41 -17.55,-20.14 -26.51,-46.85 -26.51,-80.14 -0.37,-35.34 7.84,-63.29 24.27,-84.25 17.55,-22.19 42.19,-33.29 73.55,-32.88 32.86,0.41 57.87,10.69 75.42,31.23 17.17,20.55 26.14,48.91 26.14,85.07 0,33.7 -9.33,60.41 -28,80.55 z m -72.43,-180.42 c -22.4,-0.41 -39.2,10.69 -49.66,33.29 -7.84,17.26 -11.57,39.87 -11.57,66.99 0.75,63.29 20.54,94.94 59.74,94.53 41.07,-0.82 61.23,-32.06 61.23,-93.7 0,-66.99 -19.79,-100.69 -59.74,-101.1 z"
           id="path4"
           style="fill:#000000" />
        <path
           class="cls-2"
           d="m 2246.63,2942.67 h -18.29 c -7.1,0 -10.45,-3.7 -10.45,-11.51 v -129.87 c 0,-19.32 -1.49,-32.47 -4.48,-38.63 -4.86,-11.1 -15.31,-16.44 -31.74,-16.44 -15.3,0 -30.24,9.04 -44.06,26.71 -3.36,4.52 -6.34,9.04 -8.96,13.97 v 144.66 c 0,7.81 -3.73,11.51 -10.82,11.51 h -17.92 c -7.1,0 -10.83,-3.7 -10.83,-11.51 v -203.02 c 0,-2.47 1.12,-3.29 3.36,-3.29 l 30.62,0.82 c 3.73,0 5.6,2.06 5.6,5.76 v 25.89 c 16.81,-23.01 35.84,-34.93 56.75,-36.17 47.79,-2.87 71.69,23.84 71.69,80.14 v 129.46 c 0,7.81 -3.36,11.51 -10.45,11.51 z"
           id="path5"
           style="fill:#000000" />
        <path
           class="cls-2"
           d="m 2443.79,2949.24 c -3.73,0 -7.09,0.41 -10.82,0.41 -29.87,0 -53.02,-9.45 -70.19,-28.35 -16.81,-18.91 -25.77,-44.8 -26.51,-77.67 -1.49,-37.81 5.97,-67.4 21.29,-88.36 16.8,-22.61 41.82,-33.7 75.42,-33.7 29.49,0 52.27,9.45 68.7,27.95 16.05,18.9 23.9,44.38 23.52,76.85 h -149.72 v 16.44 c 0.75,21.78 6.34,39.86 17.17,54.25 11.57,14.8 27.25,22.61 46.67,23.01 31.74,0.82 58.62,-13.15 79.9,-41.51 2.24,-2.87 4.48,-3.28 6.72,-1.23 2.99,2.47 3.73,5.34 2.24,8.22 -16.43,39.45 -44.43,60.41 -84.38,63.7 z m -11.57,-205.9 c -16.81,-0.41 -29.87,6.17 -39.95,19.32 -9.33,11.92 -14.19,27.13 -14.93,45.62 h 107.91 c 0.37,-42.74 -17.55,-64.11 -53.02,-64.93 z"
           id="path6"
           style="fill:#000000" />
        <path
           class="cls-2"
           d="m 2812.33,2941.03 c -18.67,0.41 -33.6,-1.65 -44.8,-6.99 -13.81,-5.75 -25.01,-16.85 -33.23,-32.88 -4.48,-8.63 -10.08,-21.78 -16.06,-38.63 -6.72,-18.49 -11.95,-31.24 -15.68,-39.04 -2.61,-4.93 -4.48,-9.04 -6.72,-11.92 -5.23,0.41 -9.33,0.82 -12.69,0.82 h -39.58 v 117.54 c 0,7.81 -3.73,11.51 -10.82,11.51 h -17.92 c -7.1,0 -10.83,-3.7 -10.83,-11.51 V 2651.7 c 0,-4.11 1.87,-6.17 5.6,-6.17 h 72.8 c 29.87,0 52.27,5.34 66.46,15.21 17.55,13.15 26.88,34.93 27.26,66.17 0.75,43.15 -14.19,69.46 -44.8,78.91 1.86,1.23 3.36,2.88 4.48,4.93 8.58,19.31 19.78,43.15 34.35,71.92 12.32,24.66 23.53,36.71 41.08,43.29 1.24,0.39 17.13,3.27 27.98,0.34 11.68,-3.15 25.17,-4.4 24.97,-2.89 -0.39,1.92 -11.84,8.51 -24.81,12.56 -12.04,3.76 -25.6,5.07 -27.04,5.07 z m -89.61,-258.5 c -7.84,-10.28 -20.91,-15.62 -38.83,-15.62 h -40.32 v 124.12 h 39.21 c 21.28,0 35.47,-5.34 42.19,-16.44 5.6,-8.22 8.21,-23.84 8.21,-46.85 0,-20.55 -3.36,-35.34 -10.45,-45.21 z"
           id="path7"
           style="fill:#000000" />
        <path
           class="cls-2"
           d="m 3016.97,2945.55 h -17.92 c -7.1,0 -10.45,-4.11 -10.45,-11.51 v -14.79 c -9.34,16.03 -24.27,24.25 -43.69,24.66 -47.04,1.65 -70.57,-21.37 -70.57,-69.45 v -145.9 c 0,-2.47 1.12,-3.7 2.99,-3.7 l 30.99,1.23 c 3.36,0 5.23,2.06 5.23,5.76 v 147.13 c 0,12.74 2.61,23.42 7.84,31.65 6.35,9.45 14.93,14.38 26.14,13.97 22.4,-0.41 36.22,-14.38 41.08,-41.51 v -154.94 c 0,-2.46 1.12,-3.29 3.36,-3.29 l 30.62,1.23 c 3.36,0 4.86,2.06 4.86,5.76 v 202.2 c 0,7.4 -3.36,11.51 -10.45,11.51 z"
           id="path8"
           style="fill:#000000" />
        <path
           class="cls-2"
           d="m 3149.16,2934.04 c -4.11,4.93 -9.33,6.99 -15.3,6.99 -5.97,0 -10.83,-2.47 -15.31,-6.99 -4.1,-4.52 -6.35,-10.27 -6.35,-16.85 0,-6.58 2.25,-12.33 6.35,-16.85 4.1,-4.52 9.34,-6.99 15.31,-6.99 5.97,0 11.19,2.46 15.3,6.99 4.48,4.52 6.34,10.28 6.34,16.85 0,6.99 -1.86,12.33 -6.34,16.85 z"
           id="path9"
           style="fill:#000000" />
      </g>
      <polygon
         class="cls-2"
         points="794.59,2914.34 927.98,2783.4 954.16,2811.32 821.25,2941.92 "
         id="polygon9"
         style="fill:#000000" />
      <g
         id="g13"
         style="fill:#000000">
        <path
           class="cls-2"
           d="m 1723.11,3234.25 h -16.39 c -6.36,0 -9.37,-3.3 -9.37,-10.26 v -200.88 c 0,-0.37 -0.33,-0.73 -0.67,-1.1 -0.67,0 -1.34,0.37 -1.34,0.73 l -74.59,169.72 c -2.68,6.23 -7.36,9.16 -13.38,9.16 h -10.04 c -6.36,0 -11.04,-2.93 -13.71,-9.16 l -73.93,-161.66 c -1,0 -1.67,0 -2.34,0.73 0.67,108.14 0.67,172.29 -0.33,192.81 0,4.03 -1.34,7.7 -4.01,11 -2.34,3.3 -5.02,5.13 -8.7,5.13 -7.69,0 -11.71,-5.13 -11.37,-14.66 0,-2.57 1,-6.6 3.01,-11.36 l 4.35,-11.36 c 1.67,-4.77 2.34,-8.8 2.34,-11.73 l 0.33,-215.18 c 0,-3.67 1.67,-5.5 4.68,-5.5 h 13.05 c 6.36,0 10.7,3.3 13.71,9.53 l 86.64,186.58 c 0.33,0.73 1,1.1 2.01,1.1 1.01,0 1.67,-0.37 2.01,-1.1 l 82.62,-187.32 c 2.68,-6.23 7.36,-9.53 13.71,-9.53 h 16.06 c 3.35,0 5.02,1.83 5.02,5.5 v 248.53 c 0,6.97 -3.01,10.26 -9.37,10.26 z"
           id="path10"
           style="fill:#000000" />
        <path
           class="cls-2"
           d="m 1975.2,3226.01 c -18.43,20.19 -42.38,30.29 -72.6,30.29 -30.22,0 -52.7,-10.1 -70.38,-29.88 -17.32,-19.79 -26.16,-46.04 -26.16,-78.75 -0.37,-34.73 7.74,-62.19 23.95,-82.78 17.32,-21.81 41.64,-32.71 72.6,-32.31 32.43,0.4 57.12,10.5 74.44,30.69 16.95,20.19 25.79,48.06 25.79,83.59 0,33.11 -9.21,59.36 -27.64,79.15 z m -71.49,-177.28 c -22.11,-0.4 -38.69,10.5 -49.01,32.71 -7.74,16.96 -11.42,39.17 -11.42,65.82 0.74,62.19 20.27,93.28 58.96,92.88 40.54,-0.81 60.43,-31.5 60.43,-92.07 0,-65.82 -19.53,-98.94 -58.96,-99.34 z"
           id="path11"
           style="fill:#000000" />
        <path
           class="cls-2"
           d="m 2237.57,3081.44 -62.28,163.95 c -1.11,3.63 -3.69,5.25 -7,5.25 h -17.69 c -3.69,0 -6.26,-1.62 -7.37,-5.25 l -71.86,-203.93 c -1.11,-3.63 0,-5.25 3.32,-5.25 l 30.22,-0.4 c 3.32,0 5.53,1.62 6.63,4.85 l 58.59,168.4 c 0.37,1.21 1.11,1.62 1.84,1.62 1.11,0 1.84,-0.4 2.21,-1.62 8.11,-19.38 21.37,-54.92 40.17,-105.4 l 22.85,-63 c 2.58,-7.27 7.74,-10.9 14.74,-10.9 8.11,0 11.79,4.44 11.79,13.33 0,6.06 -2.58,11.71 -8.47,16.96 -9.95,8.88 -15.85,16.15 -17.69,21.4 z"
           id="path12"
           style="fill:#000000" />
        <path
           class="cls-2"
           d="m 2429.93,3256.7 c -3.69,0 -7,0.4 -10.69,0.4 -29.48,0 -52.33,-9.29 -69.28,-27.86 -16.58,-18.58 -25.43,-44.02 -26.16,-76.32 -1.47,-37.15 5.9,-66.23 21,-86.82 16.58,-22.21 41.27,-33.11 74.44,-33.11 29.11,0 51.59,9.29 67.8,27.46 15.85,18.58 23.58,43.61 23.22,75.52 h -147.77 v 16.15 c 0.74,21.4 6.26,39.17 16.95,53.31 11.42,14.54 26.9,22.21 46.06,22.61 31.32,0.81 57.86,-12.92 78.86,-40.79 2.21,-2.83 4.42,-3.23 6.63,-1.21 2.95,2.42 3.69,5.25 2.21,8.08 -16.21,38.77 -43.85,59.36 -83.28,62.59 z m -11.42,-202.32 c -16.58,-0.4 -29.48,6.06 -39.43,18.98 -9.21,11.71 -14,26.65 -14.74,44.82 h 106.5 c 0.37,-42 -17.32,-63 -52.33,-63.8 z"
           id="path13"
           style="fill:#000000" />
      </g>
    </g>
  </g>
</svg>
